<?xml version="1.0" encoding="UTF-8"?>
<svg width="1439px" height="294px" viewBox="0 0 1439 294" version="1.1" xmlns="http://www.w3.org/2000/svg" xmlns:xlink="http://www.w3.org/1999/xlink">
    <!-- Generator: Sketch 63.1 (92452) - https://sketch.com -->
    <title>flourish</title>
    <desc>Created with Sketch.</desc>
    <defs>
        <polygon id="path-1" points="0 0.5 1439 0.5 1439 481.5 0 481.5"></polygon>
    </defs>
    <g id="Page-1" stroke="none" stroke-width="1" fill="none" fill-rule="evenodd" opacity="0.244907924">
        <g id="design_ResyGlobalAccess_LP" transform="translate(0.000000, -3350.000000)">
            <g id="Group-15-Copy" transform="translate(0.000000, 3009.000000)">
                <g id="Group-2-Copy-2" transform="translate(0.000000, 92.000000)">
                    <g id="flourish" transform="translate(0.000000, 61.000000)">
                        <mask id="mask-2" fill="white">
                            <use xlink:href="#path-1"></use>
                        </mask>
                        <g id="Clip-2"></g>
                        <path d="M959.266824,412.62457 C954.519287,409.179701 949.691691,406.411076 944.471802,404.525547 C944.615909,406.88047 944.824064,409.171745 945.056237,411.431198 C953.326399,431.241185 965.511477,448.895145 980.490636,463.907774 C982.996503,464.934075 985.550406,465.95242 988.048267,466.97872 C999.905101,471.839725 1011.64184,476.637083 1023.5227,481.211679 C995.565868,465.260263 972.868958,441.567837 959.266824,412.62457 L959.266824,412.62457 Z M1454.91472,291.129836 C1454.90668,241.724021 1414.46644,201.532847 1364.77239,201.532847 C1315.07029,201.532847 1274.63006,241.724021 1274.63006,291.137828 C1274.63006,329.362999 1311.66142,357.198725 1348.79729,346.497594 L1362.80264,342.453702 L1356.21803,355.384567 C1338.87617,389.461952 1309.38615,409.801292 1277.31536,409.801292 C1244.68177,409.801292 1228.75491,398.428844 1186.31277,397.397891 C1187.94485,437.932717 1204.08074,464.505724 1244.59334,458.304024 C1261.78245,461.173109 1274.90341,461.045239 1288.41833,459.422887 C1266.70281,468.229941 1242.93714,473.120973 1218.02177,473.120973 C1137.92116,473.120973 1135.15547,429.621159 1063.60117,427.271546 C1064.3328,481.888068 1080.43653,487.602263 1109.66124,494.099663 C1120.70793,501.26039 1132.31741,507.270285 1144.46557,511.953528 C1122.0747,510.203306 1097.899,506.111462 1075.2991,496.808911 C1003.76088,469.404748 990.213805,394.496838 930.92022,389.58183 C931.161414,436.118559 939.466536,463.338909 982.46343,480.984985 C1042.10273,505.456128 1098.43766,528.576642 1187.89661,528.576642 C1335.12158,528.576642 1454.90668,422.060839 1454.91472,291.129836 L1454.91472,291.129836 Z M1431.35738,415.810912 C1382.92679,490.462852 1292.61679,540.819546 1189.35714,540.819546 C996.494871,540.819546 954.945041,436.925399 723.137337,436.925399 C491.305518,436.925399 449.78784,540.819546 256.901452,540.819546 C153.633765,540.819546 63.3318109,490.462852 14.8931805,415.80292 L-83.1898212,676.681123 C12.1038999,751.389006 132.686026,792.467153 256.917529,792.467153 C498.306853,792.467153 571.366713,688.573006 723.12126,688.573006 C874.907961,688.573006 947.91959,792.467153 1189.34107,792.467153 C1313.56453,792.467153 1434.1547,751.389006 1529.44842,676.681123 L1431.35738,415.810912 Z M256.095351,528.576642 C345.554297,528.576642 401.889233,505.456128 461.52853,480.984985 C504.573663,463.322926 512.838586,436.046632 513.07978,389.58183 C453.786195,394.496838 440.255197,469.396756 368.700905,496.808911 C346.092964,506.111462 321.925301,510.203306 299.534435,511.953528 C311.682585,507.270285 323.284028,501.26039 334.330725,494.099663 C362.277098,487.889971 379.651123,483.08685 380.398826,427.271546 C308.804334,429.621159 306.119038,473.120973 225.97823,473.120973 C201.062864,473.120973 177.297191,468.229941 155.58167,459.422887 C169.008149,461.037247 182.225594,461.173109 199.398624,458.304024 C239.967496,464.513716 256.063192,437.660993 257.679194,397.397891 C215.253126,398.428844 199.318226,409.801292 166.684645,409.801292 C134.61385,409.801292 105.115794,389.461952 87.7819672,355.384567 L81.1973643,342.453702 L95.2027101,346.497594 C132.282305,357.182741 169.369941,329.434926 169.369941,291.137828 C169.369941,241.724021 128.929705,201.532847 79.2276113,201.532847 C29.5255171,201.532847 -10.914718,241.724021 -10.914718,291.137828 C-10.8986384,422.068831 108.870384,528.576642 256.095351,528.576642 L256.095351,528.576642 Z M1467.49374,290.45254 C1467.48571,330.494594 1456.90455,368.341466 1438.20875,401.950193 L1543,681.459436 C1436.71438,766.502735 1312.05433,806 1187.98079,806 C944.148121,806 869.959486,701.848998 721.991966,701.848998 C574.008377,701.848998 499.851879,806 256.01921,806 C131.624297,806 7.01245755,766.27841 -99,681.459436 L5.78321117,401.950193 C-12.9125818,368.341466 -23.4937419,330.478571 -23.4937419,290.436516 C-23.4857076,233.946615 22.6150489,188 79.2567939,188 C135.906573,188 181.999295,233.954627 181.999295,290.45254 C181.999295,331.279732 147.042099,363.862973 105.818157,360.642303 C121.131514,383.491431 143.177606,396.782701 166.653801,396.782701 C198.598139,396.782701 215.196982,384.268558 264.045466,384.268558 L270.376486,384.268558 L270.376486,390.581711 C270.376486,421.899116 262.269888,445.549405 246.956531,459.008919 C304.33743,451.798465 312.347618,414.191942 386.592492,414.191942 L392.923513,414.191942 L392.923513,420.505095 C392.923513,439.628821 391.991535,458.808629 385.122217,474.206954 C437.578097,441.167051 454.426003,376.256942 519.158278,376.256942 L525.489299,376.256942 L525.489299,382.570095 C525.489299,407.301952 525.408956,438.002463 507.918307,462.18953 C562.969262,441.543597 626.319639,424.326635 722.008034,424.326635 C817.688395,424.326635 881.046806,441.543597 936.081693,462.18953 C918.591044,438.002463 918.518735,407.301952 918.518735,382.570095 L918.518735,376.256942 L924.849756,376.256942 C989.573997,376.256942 1006.4219,441.15904 1058.88582,474.206954 C1052.00846,458.808629 1051.08452,439.628821 1051.08452,420.505095 L1051.08452,414.191942 L1057.41554,414.191942 C1131.66845,414.191942 1139.63043,451.790453 1197.0515,459.008919 C1181.73011,445.549405 1173.63155,421.899116 1173.63155,390.581711 L1173.63155,384.268558 L1179.96257,384.268558 C1228.81105,384.268558 1245.4099,396.782701 1277.35423,396.782701 C1300.83043,396.782701 1322.87652,383.491431 1338.18988,360.642303 C1296.97397,363.862973 1262.00874,331.279732 1262.00874,290.45254 C1262.00874,233.954627 1308.09343,188 1364.75124,188 C1421.39299,188 1467.48571,233.946615 1467.49374,290.436516 L1467.49374,290.444528 L1467.49374,290.45254 Z M1402.96699,289.539631 C1402.96699,268.374227 1385.66778,251.153285 1364.40619,251.153285 C1343.14459,251.153285 1325.84539,268.374227 1325.84539,289.539631 L1325.84539,295.857183 L1338.53791,295.857183 L1338.53791,289.539631 C1338.53791,275.341172 1350.1432,263.788389 1364.40619,263.788389 C1378.66917,263.788389 1390.27446,275.341172 1390.27446,289.539631 C1390.27446,338.091785 1369.84239,381.993963 1335.63055,406.959519 C1288.71813,441.217008 1232.44739,427.259066 1204.34021,410.13433 C1202.78586,409.949934 1201.32815,409.741487 1199.69326,409.58916 C1200.57111,415.032838 1201.86774,419.899278 1203.49458,424.21253 C1244.14932,445.915087 1300.19456,448.504642 1343.13654,417.149378 C1380.60205,389.810732 1402.96699,342.100384 1402.96699,289.539631 L1402.96699,289.539631 Z M1479.75928,672.518069 L1405.72097,492.126555 C1347.31109,543.919987 1270.69481,572.328289 1188.92258,572.328289 C987.600041,572.328289 946.697867,467.678832 723.13733,467.678832 C499.544668,467.678832 458.682649,572.328289 257.336015,572.328289 C175.555761,572.328289 98.9475066,543.919987 40.537628,492.126555 L-33.5006878,672.518069 C51.6285179,730.340919 152.080981,760.890511 257.336015,760.890511 C493.224226,760.890511 560.363863,656.241054 723.121267,656.241054 C885.894734,656.241054 953.018309,760.890511 1188.92258,760.890511 C1294.17762,760.890511 1394.62205,730.340919 1479.75928,672.518069 L1479.75928,672.518069 Z M1410.69741,471.789875 L1495.56946,678.17143 C1401.27432,743.525991 1297.86938,774.423358 1189.05802,774.423358 C950.275526,774.423358 882.393945,669.958918 723.125282,669.958918 C563.840552,669.958918 495.999138,774.423358 257.208609,774.423358 C148.180348,774.423358 44.8075467,743.397419 -49.3108666,678.17143 L35.5692252,471.789875 C100.189276,532.459608 173.750416,560.8659 257.208609,560.8659 C454.900657,560.8659 496.577537,456.40146 723.141348,456.40146 C949.713193,456.40146 991.365973,560.8659 1189.05802,560.8659 C1272.52425,560.8659 1346.08539,532.443536 1410.69741,471.789875 L1410.69741,471.789875 Z M1430.07015,666.889265 L1379.02023,553.508745 C1322.7367,587.666359 1257.33653,605.698887 1189.40396,605.698887 C980.235973,605.698887 938.101703,501.510949 723.137338,501.510949 C508.221209,501.510949 465.966349,605.698887 256.854635,605.698887 C188.91403,605.698887 123.5219,587.666359 67.2303229,553.508745 L16.1884457,666.889265 C88.6873666,707.746965 171.774121,729.313869 256.854635,729.313869 C492.037983,729.313869 545.483628,625.12593 723.121259,625.12593 C900.734772,625.12593 954.252771,729.313869 1189.40396,729.313869 C1274.48448,729.313869 1357.57123,707.746965 1430.07015,666.889265 L1430.07015,666.889265 Z M1384.20755,536.330514 L1445.88033,673.157298 C1364.81228,720.038251 1279.71894,742.846715 1189.12197,742.846715 C952.240958,742.846715 896.312838,638.8446 723.121264,638.8446 C549.881483,638.8446 494.065846,742.846715 257.136623,742.846715 C166.491451,742.846715 81.3981144,720.006251 0.37826685,673.157298 L62.0510504,536.330514 C120.164553,573.251265 182.48813,594.235692 257.136623,594.235692 C463.301765,594.235692 504.703518,490.233577 723.137333,490.233577 C941.530976,490.233577 983.021108,594.235692 1189.12197,594.235692 C1263.9874,594.235692 1326.29491,573.131263 1384.20755,536.330514 L1384.20755,536.330514 Z M463.509364,463.907774 C478.488523,448.895145 490.673601,431.241185 498.943763,411.431198 C499.175936,409.171745 499.376085,406.88047 499.528198,404.525547 C494.316315,406.411076 489.480713,409.179701 484.733176,412.62457 C471.131042,441.567837 448.426126,465.260263 420.477304,481.211679 C432.358155,476.637083 444.094899,471.839725 455.951733,466.97872 C458.441588,465.95242 461.003497,464.934075 463.509364,463.907774 L463.509364,463.907774 Z M146.317701,490.584433 C221.680563,522.932758 297.462107,509.882326 350.014821,459.95094 C351.391642,458.646702 359.346611,450.942037 366.246822,441.522539 C366.254873,441.458132 366.262925,441.393726 366.270977,441.329319 C358.654175,442.295421 352.108234,443.865337 346.117852,445.813644 C344.209626,447.85856 342.494638,449.597544 341.278848,450.756867 C291.479778,498.071726 220.464773,508.610292 151.317737,478.918748 C72.6778792,445.169575 19.8433601,369.378852 19.8433601,290.327533 C19.8433601,258.309293 45.8982982,232.264786 77.9114113,232.264786 C109.932576,232.264786 135.979462,258.309293 135.979462,290.327533 C135.979462,304.577541 124.377124,316.18687 110.117762,316.18687 C95.8584005,316.18687 84.2560625,304.577541 84.2560625,290.327533 L84.2560625,283.983461 L71.5667601,283.983461 L71.5667601,290.327533 C71.5667601,311.573732 88.8615707,328.875014 110.117762,328.875014 C131.373954,328.875014 148.668765,311.573732 148.668765,290.327533 C148.668765,251.313102 116.929406,219.576642 77.9114113,219.576642 C38.8934169,219.576642 7.15405777,251.305051 7.15405777,290.311431 C7.15405777,374.37038 63.0803866,454.854751 146.317701,490.584433 L146.317701,490.584433 Z M79.593813,263.790369 C93.8567992,263.790369 105.462086,275.344961 105.462086,289.545644 L105.462086,295.864186 L118.154614,295.864186 L118.154614,289.545644 C118.154614,268.376924 100.855407,251.153285 79.593813,251.153285 C58.3322187,251.153285 41.0330124,268.376924 41.0330124,289.545644 C41.0330124,342.11463 63.3979546,389.832451 100.863461,417.17538 C143.362489,448.206798 199.43189,446.170111 240.505425,424.239638 C242.132259,419.92571 243.428894,415.058508 244.30674,409.613978 C242.679906,409.766328 241.214144,409.974808 239.667847,410.159233 C211.592878,427.262596 155.330189,441.278854 108.369448,406.983925 C74.1495563,382.014458 53.7255399,338.105403 53.7255399,289.545644 C53.7255399,275.344961 65.3308268,263.790369 79.593813,263.790369 L79.593813,263.790369 Z M1366.08859,219.576642 C1327.07059,219.576642 1295.33124,251.313819 1295.33124,290.32913 C1295.33124,311.575809 1312.62605,328.877481 1333.88224,328.877481 C1355.13843,328.877481 1372.43324,311.575809 1372.43324,290.32913 L1372.43324,283.984915 L1359.74394,283.984915 L1359.74394,290.32913 C1359.74394,304.57946 1348.1416,316.189052 1333.88224,316.189052 C1319.62288,316.189052 1308.02054,304.57946 1308.02054,290.32913 C1308.02054,258.310167 1334.06742,232.265072 1366.08859,232.265072 C1398.1017,232.265072 1424.15664,258.310167 1424.15664,290.32913 C1424.15664,369.382234 1371.32212,445.174669 1292.68226,478.924604 C1223.53523,508.616818 1152.52022,498.078014 1102.72115,450.762087 C1101.50536,449.602738 1099.78232,447.863714 1097.88215,445.818752 C1091.89177,443.870402 1085.34583,442.30045 1077.72902,441.334326 C1077.73707,441.398734 1077.74513,441.463142 1077.75318,441.527551 C1084.66144,450.947261 1092.60836,458.6521 1093.98518,459.956368 C1147.12566,510.452454 1223.13265,522.593413 1297.6823,490.590552 C1380.91961,454.860063 1436.84594,374.373875 1436.84594,290.313028 C1436.84594,251.305768 1405.09853,219.576642 1366.08859,219.576642 L1366.08859,219.576642 Z" id="Fill-1" fill="#FFFFFF" mask="url(#mask-2)"></path>
                    </g>
                </g>
            </g>
        </g>
    </g>
</svg>