<?xml version="1.0" encoding="UTF-8"?>
<svg width="219px" height="38px" viewBox="0 0 219 38" version="1.1" xmlns="http://www.w3.org/2000/svg" xmlns:xlink="http://www.w3.org/1999/xlink">
    <!-- Generator: Sketch 63.1 (92452) - https://sketch.com -->
    <title>Logo Lockup_rev</title>
    <desc>Created with Sketch.</desc>
    <g id="Page-1" stroke="none" stroke-width="1" fill="none" fill-rule="evenodd">
        <g id="design_ResyGlobalAccess_LP" transform="translate(-611.000000, -3494.000000)" fill="#FFFFFF" fill-rule="nonzero">
            <g id="Group-15-Copy" transform="translate(0.000000, 3009.000000)">
                <g id="Group-2-Copy-2" transform="translate(0.000000, 92.000000)">
                    <g id="Logo-Lockup_rev" transform="translate(611.000000, 393.000000)">
                        <path d="M219,0.388297872 L131.244681,0.388297872 L131.244681,37.6648936 L219,37.6648936 L219,0.388297872 Z M155.480902,25.9038286 C151.744485,25.9038286 148.714957,23.6114177 147.806099,20.4219763 L146.998225,20.4219763 L146.998225,25.7044886 L143.665744,25.7044886 L143.665744,11.3520025 L149.320863,11.3520025 C150.229721,11.3520025 150.936611,11.4516725 151.643501,11.7506827 C152.350391,11.9500228 152.855312,12.3487029 153.360233,12.7473831 C153.76417,13.1460633 154.168107,13.6444135 154.370076,14.1427637 C154.572044,14.6411139 154.673028,15.2391341 154.673028,15.9368244 C154.673028,16.8338548 154.47106,17.7308852 154.067123,18.4285755 C153.663186,19.1262658 153.05728,19.624616 152.249406,20.0232962 C151.946453,20.1229662 151.744485,20.3223063 151.340548,20.4219763 C152.148422,22.016697 153.663186,23.0133974 155.682871,23.0133974 L155.682871,25.9038286 L155.480902,25.9038286 Z M172.446258,25.7044886 L161.842911,25.7044886 L161.842911,11.3520025 L171.941336,11.3520025 L171.941336,14.2424337 L165.175391,14.2424337 L165.175391,17.0331949 L170.224604,17.0331949 L170.224604,19.8239561 L165.175391,19.8239561 L165.175391,22.9137274 L172.446258,22.9137274 L172.446258,25.7044886 Z M182.443699,14.940124 C182.443699,15.4384742 182.746652,15.8371544 183.251573,16.1361645 C183.756494,16.4351747 184.564368,16.7341848 185.473227,16.9335249 C186.079132,17.0331949 186.584054,17.232535 187.088975,17.4318751 C187.593896,17.6312152 188.098817,17.9302253 188.502754,18.3289054 C188.906691,18.7275856 189.310629,19.1262658 189.512597,19.624616 C189.81555,20.1229662 189.916534,20.8206565 189.916534,21.5183468 C189.916534,22.2160371 189.81555,22.8140573 189.512597,23.3124076 C189.209644,23.9104278 188.805707,24.309108 188.300786,24.7077881 C187.795865,25.1064683 187.189959,25.4054784 186.483069,25.6048185 C185.77618,25.8041586 185.06929,25.9038286 184.261416,25.9038286 C183.554526,25.9038286 182.847636,25.8041586 182.241731,25.7044886 C181.635825,25.6048185 181.029919,25.4054784 180.524998,25.2061384 C180.020077,25.0067983 179.61614,24.7077881 179.212203,24.408778 C178.808266,24.1097679 178.505313,23.8107578 178.20236,23.5117476 L180.424014,21.2193367 C180.625982,21.4186768 180.827951,21.6180168 181.130904,21.8173569 C181.433856,22.016697 181.736809,22.2160371 182.039762,22.4153772 C182.342715,22.6147173 182.746652,22.7143873 183.150589,22.8140573 C183.554526,22.9137274 183.958463,23.0133974 184.3624,23.0133974 C184.665353,23.0133974 184.867321,23.0133974 185.170274,22.9137274 C185.473227,22.8140573 185.675195,22.7143873 185.877164,22.6147173 C186.079132,22.5150472 186.281101,22.3157071 186.382085,22.116367 C186.483069,21.917027 186.584054,21.7176869 186.584054,21.4186768 C186.584054,20.9203265 186.281101,20.4219763 185.77618,20.2226362 C185.271258,19.9236261 184.3624,19.624616 183.251573,19.3256059 C182.645668,19.2259358 182.140746,19.0265957 181.635825,18.7275856 C181.130904,18.5282455 180.726967,18.2292354 180.32303,17.8305552 C179.919093,17.5315451 179.717124,17.1328649 179.515156,16.6345147 C179.313187,16.2358346 179.212203,15.7374844 179.212203,15.1394641 C179.212203,14.5414439 179.313187,13.9434236 179.515156,13.4450734 C179.717124,12.9467232 180.121061,12.448373 180.524998,12.0496928 C181.029919,11.6510126 181.534841,11.3520025 182.241731,11.0529924 C182.94862,10.8536523 183.756494,10.6543122 184.665353,10.6543122 C185.473227,10.6543122 186.079132,10.7539823 186.685038,10.8536523 C187.290943,11.0529924 187.795865,11.1526624 188.199802,11.3520025 C188.603739,11.5513426 188.906691,11.7506827 189.209644,12.0496928 C189.512597,12.2490329 189.714566,12.448373 189.81555,12.548043 L187.896849,14.6411139 C187.69488,14.5414439 187.492912,14.3421038 187.290943,14.2424337 C187.088975,14.0430936 186.786022,13.9434236 186.584054,13.8437536 C186.281101,13.7440835 185.978148,13.6444135 185.675195,13.5447434 C185.372242,13.4450734 184.968305,13.4450734 184.665353,13.4450734 C184.463384,13.4450734 184.160431,13.4450734 183.958463,13.5447434 C183.756494,13.6444135 183.554526,13.7440835 183.352557,13.8437536 C183.150589,13.9434236 183.049605,14.1427637 182.94862,14.2424337 C182.443699,14.5414439 182.443699,14.7407839 182.443699,14.940124 M208.598622,11.2523325 L203.34744,19.624616 L203.34744,25.7044886 L199.913975,25.7044886 L199.913975,19.724286 L194.662794,11.3520025 L198.500196,11.3520025 L201.731692,16.7341848 L204.862204,11.3520025 L208.598622,11.3520025 L208.598622,11.2523325 Z M149.118894,17.9302253 C149.7248,17.9302253 150.229721,17.7308852 150.633658,17.4318751 C151.037595,17.0331949 151.138579,16.6345147 151.138579,16.0364945 C151.138579,15.4384742 150.936611,14.940124 150.633658,14.6411139 C150.229721,14.3421038 149.7248,14.1427637 149.118894,14.1427637 L147.099209,14.1427637 L147.099209,17.9302253 L149.118894,17.9302253 Z" id="Shape"></path>
                        <polygon id="Path" points="60.5744681 16.6968085 62.0805932 16.6968085 63.6808511 16.6968085 63.6808511 10.5337447 63.6808511 4.2712766 62.0805932 4.2712766 60.5744681 4.2712766 60.5744681 10.5337447"></polygon>
                        <path d="M55.0631434,9.53970213 L51.5559369,9.53970213 L51.5559369,7.05459574 L55.0631434,7.05459574 C56.0652025,7.05459574 56.566232,7.65102128 56.566232,8.34685106 C56.566232,8.9432766 56.0652025,9.53970213 55.0631434,9.53970213 M59.8730268,8.24744681 C59.8730268,5.86174468 58.1695264,4.2712766 55.3637612,4.2712766 L48.1489362,4.2712766 L48.1489362,16.6968085 L51.455731,16.6968085 L51.455731,12.3230213 L52.6582018,12.3230213 L56.4660261,16.6968085 L60.5744681,16.6968085 L56.4660261,12.223617 C58.6705559,11.7265957 59.8730268,10.1361277 59.8730268,8.24744681" id="Shape"></path>
                        <path d="M69.5281602,10.5842485 L69.5281602,10.3838367 C69.5281602,8.4799245 70.5940759,7.17724777 72.9390905,7.17724777 L76.8829787,7.17724777 L76.8829787,4.2712766 L72.6193158,4.2712766 C68.2490613,4.2712766 66.0106383,6.87663006 66.0106383,10.3838367 L66.0106383,10.5842485 C66.0106383,14.4922787 68.568836,16.6968085 72.5127242,16.6968085 L73.6852315,16.6968085 L75.070922,13.8910432 L72.9390905,13.8910432 C70.8072591,13.8910432 69.5281602,12.7887783 69.5281602,10.5842485" id="Path"></path>
                        <path d="M5.91214825,11.428383 L7.61564859,7.25340426 L9.31914894,11.428383 L5.91214825,11.428383 Z M5.51132464,4.2712766 L0,16.6968085 L3.70761839,16.6968085 L4.80988332,14.2117021 L10.6218257,14.2117021 L11.7240906,16.6968085 L15.5319149,16.6968085 L10.0205903,4.2712766 L5.51132464,4.2712766 Z" id="Shape"></path>
                        <polygon id="Path" points="24.5134135 12.1242128 21.5758557 4.2712766 16.3085106 4.2712766 16.3085106 16.6968085 19.5499537 16.6968085 19.5499537 7.75042553 22.892692 16.6968085 25.9315449 16.6968085 29.2742831 7.75042553 29.2742831 16.6968085 32.6170213 16.6968085 32.6170213 4.2712766 27.3496762 4.2712766"></polygon>
                        <polygon id="Path" points="34.9468085 16.6968085 45.8191489 16.6968085 45.8191489 13.9134894 38.434163 13.9134894 38.434163 11.9254043 45.6140104 11.9254043 45.6140104 9.14208511 38.434163 9.14208511 38.434163 7.154 45.8191489 7.154 45.8191489 4.2712766 34.9468085 4.2712766"></polygon>
                        <path d="M81.2419355,11.428383 L82.9454358,7.25340426 L84.6489362,11.428383 L81.2419355,11.428383 Z M80.8411119,4.2712766 L75.3297872,16.6968085 L79.0374056,16.6968085 L80.1396706,14.2117021 L85.9516129,14.2117021 L87.0538778,16.6968085 L90.8617021,16.6968085 L85.3503775,4.2712766 L80.8411119,4.2712766 Z" id="Shape"></path>
                        <polygon id="Path" points="100.783489 11.826 95.8132766 4.2712766 91.6382979 4.2712766 91.6382979 16.6968085 94.9186383 16.6968085 94.9186383 8.84387234 100.08766 16.6968085 104.06383 16.6968085 104.06383 4.2712766 100.783489 4.2712766"></polygon>
                        <path d="M88.7566111,24.6130748 L85.8522501,24.6130748 C85.1964267,24.6130748 84.8216704,24.2122512 84.8216704,23.6110158 C84.8216704,23.0097804 85.2901158,22.6089568 85.8522501,22.6089568 L91.0051487,22.6089568 L92.2231065,19.8031915 L85.7585611,19.8031915 C83.1352673,19.8031915 81.5425532,21.5066918 81.5425532,23.7112217 C81.5425532,26.1161633 83.0415782,27.4188401 85.2901158,27.4188401 L88.1944767,27.4188401 C88.8503002,27.4188401 89.2250565,27.8196637 89.2250565,28.4208991 C89.2250565,29.0221345 88.7566111,29.4229581 88.1944767,29.4229581 L81.9173094,29.4229581 L81.9173094,32.2287234 L88.1944767,32.2287234 C90.8177705,32.2287234 92.4104846,30.625429 92.4104846,28.2204873 C92.5041737,25.9157515 91.0988377,24.6130748 88.7566111,24.6130748" id="Path"></path>
                        <path d="M63.6056966,25.071617 L60.09849,25.071617 L60.09849,22.5865106 L63.6056966,22.5865106 C64.6077557,22.5865106 65.1087852,23.1829362 65.1087852,23.878766 C65.1087852,24.5745957 64.6077557,25.071617 63.6056966,25.071617 M68.41558,23.7793617 C68.41558,21.3936596 66.7120796,19.8031915 63.9063143,19.8031915 L56.6914894,19.8031915 L56.6914894,32.2287234 L59.9982841,32.2287234 L59.9982841,27.8549362 L61.200755,27.8549362 L65.0085793,32.2287234 L69.1170213,32.2287234 L65.0085793,27.7555319 C67.2131091,27.2585106 68.41558,25.7674468 68.41558,23.7793617" id="Shape"></path>
                        <polygon id="Path" points="69.893617 32.2287234 80.7659574 32.2287234 80.7659574 29.346 73.3106383 29.346 73.3106383 27.3579149 80.6624113 27.3579149 80.6624113 24.5745957 73.3106383 24.5745957 73.3106383 22.5865106 80.7659574 22.5865106 80.7659574 19.8031915 69.893617 19.8031915"></polygon>
                        <path d="M49.9785431,25.3698298 L46.1877028,25.3698298 L46.1877028,22.6859149 L49.9785431,22.6859149 C51.0315543,22.6859149 51.5580599,23.2823404 51.5580599,24.0775745 C51.5580599,24.7734043 51.0315543,25.3698298 49.9785431,25.3698298 M50.3997476,19.8031915 L42.712766,19.8031915 L42.712766,32.2287234 L46.1877028,32.2287234 L46.1877028,28.1531489 L50.2944464,28.1531489 C53.2428777,28.1531489 55.1382979,26.3638723 55.1382979,23.9781702 C55.0329968,21.4930638 53.2428777,19.8031915 50.3997476,19.8031915" id="Shape"></path>
                        <path d="M101.181953,24.6130748 L98.2776687,24.6130748 C97.6218625,24.6130748 97.2471161,24.2122512 97.2471161,23.6110158 C97.2471161,23.0097804 97.7155491,22.6089568 98.2776687,22.6089568 L103.430432,22.6089568 L104.648358,19.8031915 L98.1839821,19.8031915 C95.5607573,19.8031915 93.9680851,21.5066918 93.9680851,23.7112217 C93.9680851,26.1161633 95.4670707,27.4188401 97.7155491,27.4188401 L100.619834,27.4188401 C101.27564,27.4188401 101.650386,27.8196637 101.650386,28.4208991 C101.650386,29.0221345 101.181953,29.4229581 100.619834,29.4229581 L94.3428315,29.4229581 L94.3428315,32.2287234 L100.619834,32.2287234 C103.243059,32.2287234 104.835731,30.625429 104.835731,28.2204873 C104.929417,25.9157515 103.617805,24.6130748 101.181953,24.6130748" id="Path"></path>
                        <polygon id="Path" points="15.5319149 32.2287234 26.4042553 32.2287234 26.4042553 29.346 18.9489362 29.346 18.9489362 27.3579149 26.1971631 27.3579149 26.1971631 24.5745957 18.9489362 24.5745957 18.9489362 22.5865106 26.4042553 22.5865106 26.4042553 19.8031915 15.5319149 19.8031915"></polygon>
                        <polygon id="Path" points="43.2876485 19.8031915 38.9508151 19.8031915 35.7234043 23.4811489 32.4959934 19.8031915 28.0583034 19.8031915 33.6054159 25.9662553 27.9574468 32.2287234 32.1934236 32.2287234 35.6225477 28.2525532 39.0516717 32.2287234 43.4893617 32.2287234 37.8413926 25.8668511"></polygon>
                        <rect id="Rectangle" x="118.042553" y="0.388297872" width="1" height="37.2765957"></rect>
                    </g>
                </g>
            </g>
        </g>
    </g>
</svg>