<?xml version="1.0" encoding="UTF-8"?>
<svg width="206px" height="84px" viewBox="0 0 206 84" version="1.1" xmlns="http://www.w3.org/2000/svg" xmlns:xlink="http://www.w3.org/1999/xlink">
    <!-- Generator: Sketch 63.1 (92452) - https://sketch.com -->
    <title>Fill 1</title>
    <desc>Created with Sketch.</desc>
    <g id="Page-1" stroke="none" stroke-width="1" fill="none" fill-rule="evenodd" opacity="0.235514323">
        <g id="design_ResyGlobalAccess_LP" transform="translate(-150.000000, -1799.000000)" fill="#FFFFFF">
            <g id="ribbon" transform="translate(150.000000, 1799.000000)">
                <path d="M201.860708,57.3520682 L182.205764,9.78988075 C166.700931,23.4460529 146.362653,30.9382681 124.654292,30.9382681 C71.2096528,30.9382681 60.3497778,3.34587273 1.00170833,3.34587273 C-58.3543333,3.34587273 -69.1999722,30.9382681 -122.653153,30.9382681 C-144.362653,30.9382681 -164.700931,23.4460529 -180.206333,9.78988075 L-199.861278,57.3520682 C-177.260597,72.6001093 -150.595222,80.6535604 -122.653153,80.6546942 C-60.0319167,80.6546942 -42.2077361,53.0622988 0.998861111,53.0622988 C44.2094444,53.0622988 62.0279306,80.6546942 124.654292,80.6546942 C152.595792,80.6535604 179.261167,72.6001093 201.860708,57.3520682 L201.860708,57.3520682 Z M183.474486,4.06527505 L206,58.5760159 C180.975194,75.8377032 153.530819,83.9988662 124.654292,84 C61.2819583,84 43.2675833,56.4076046 0.998861111,56.4076046 C-41.2766944,56.4076046 -59.2791111,84 -122.653153,84 C-151.587764,83.9988662 -179.023028,75.8053896 -204,58.5760159 L-181.474486,4.06527505 C-164.324528,20.0888421 -144.801125,27.5929623 -122.653153,27.5929623 C-70.1873889,27.5929623 -59.1259306,0 1.00170833,0 C61.1327639,0 72.1873889,27.5929623 124.654292,27.5929623 C146.804542,27.5929623 166.326806,20.0860076 183.474486,4.06527505 L183.474486,4.06527505 Z M188.475917,55.6337794 L174.939083,25.6048268 C160.012236,34.6531959 142.670375,39.4271021 124.654292,39.4282359 C69.1835694,39.4282359 58.0093611,11.8352736 1.00170833,11.8352736 C-55.9911389,11.8352736 -67.1978056,39.4282359 -122.653153,39.4282359 C-140.670944,39.4271021 -158.012806,34.6531959 -172.939653,25.6048268 L-186.476486,55.6337794 C-167.250333,66.4514588 -145.21625,72.1635926 -122.653153,72.1647264 C-60.2841806,72.1647264 -46.1095694,44.572331 0.998861111,44.572331 C48.0993194,44.572331 62.2927222,72.1647264 124.654292,72.1647264 C147.216819,72.1635926 169.250903,66.4514588 188.475917,55.6337794 L188.475917,55.6337794 Z M176.420208,20.7192403 L192.784903,57.0204288 C171.274139,69.4571886 148.693389,75.5088984 124.654292,75.5100322 C61.7961667,75.5100322 46.9570139,47.9182037 0.998861111,47.9182037 C-44.97125,47.9182037 -59.7836389,75.5100322 -122.653153,75.5100322 C-146.706486,75.5088984 -169.285528,69.4503857 -190.784333,57.0204288 L-174.420208,20.7192403 C-159.000222,30.515357 -142.461847,36.0817963 -122.653153,36.0823632 C-67.9471944,36.0823632 -56.9597639,8.49053471 1.00170833,8.49053471 C58.9540694,8.49053471 69.9642778,36.0823632 124.654292,36.0823632 C144.518792,36.0817963 161.05375,30.4813428 176.420208,20.7192403 L176.420208,20.7192403 Z M-25.0116528,33.3810613 C-26.1869861,30.9138912 -29.2608472,24.3377943 -29.2608472,24.3377943 C-29.5199444,25.0543621 -32.26125,32.6146059 -33.3517361,35.6498147 C-30.5922083,34.6656678 -27.7968056,33.9031807 -25.0116528,33.3810613 L-25.0116528,33.3810613 Z M-27.3987639,21.0157316 C-24.2167083,27.2335446 -21.0876111,33.5250552 -18.0889167,39.7252941 C-18.541625,39.8006924 -21.263,40.2774595 -21.6969167,40.4038792 C-22.0721806,39.5960398 -23.2674444,37.0744468 -23.6495417,36.2666073 C-27.3406806,36.8902027 -31.0460556,37.9406775 -34.6825278,39.3789152 C-35.2775972,41.0473163 -35.8823472,42.7298901 -36.46375,44.3733474 C-37.8708472,44.8421777 -39.2631389,45.3280152 -40.6434722,45.8280253 C-37.7814444,38.0432872 -34.7707917,30.0323541 -31.6912361,22.0015792 C-30.2926806,21.6529327 -28.8610972,21.3246948 -27.3987639,21.0157316 L-27.3987639,21.0157316 Z M-110.841167,57.1547853 C-107.062903,56.8917414 -103.280083,56.4739325 -99.5035278,55.9013585 L-99.5035278,52.5594542 C-103.280083,53.1320281 -107.062903,53.549837 -110.841167,53.8128809 L-110.841167,48.810512 C-106.437083,48.5032496 -102.026736,47.9850985 -97.6260694,47.2571926 C-97.6448611,46.0978721 -97.6636528,44.9385516 -97.6824444,43.779231 C-102.787514,44.6579336 -108.303153,45.2843635 -114.325597,45.5927598 L-114.325597,65.5767245 C-108.07025,65.3074447 -102.348472,64.7507441 -97.0731389,63.9570772 C-97.0549167,62.8623838 -97.0378333,61.7676905 -97.0196111,60.6729971 C-101.621861,61.3527161 -106.234931,61.8022717 -110.841167,62.021097 L-110.841167,57.1547853 Z M-51.2824028,47.2469883 C-55.6881944,48.6699196 -57.3259167,45.7135106 -57.3259167,41.1125104 C-57.3259167,37.4418011 -54.7543056,32.5233342 -51.0637361,31.3345346 C-48.7671667,30.5981252 -46.6044167,30.7880383 -45.9393056,33.0976089 L-42.6638611,32.0873843 C-43.4360278,27.8117876 -47.0457361,26.6808123 -51.1947083,28.0141726 C-57.0030417,29.8826912 -60.75625,35.4434614 -60.75625,42.1833937 C-60.75625,48.7555223 -57.20975,52.3667065 -51.1514306,50.4159867 C-46.7370972,48.9964568 -43.6045833,45.5632808 -42.6558889,41.2746452 L-46.1870139,42.1833937 C-46.9625972,44.6176834 -48.7466667,46.4306453 -51.2824028,47.2469883 L-51.2824028,47.2469883 Z M-82.5346528,49.1880707 C-79.1094444,48.2781883 -77.7786528,46.2016157 -77.7780833,45.1256302 C-77.7786528,42.7196858 -79.0183333,42.8716163 -82.3524306,43.7610901 C-84.2839861,44.2713045 -86.2144028,44.7418356 -88.1436806,45.1726833 L-88.1436806,50.3989796 C-86.2753333,50.0321921 -84.4047083,49.6285558 -82.5346528,49.1880707 L-82.5346528,49.1880707 Z M-79.0644583,51.1813083 C-76.905125,53.5555061 -74.7452222,55.8446681 -72.5875972,58.0635338 C-73.8107639,58.4694378 -75.0555694,58.8645705 -76.320875,59.2506327 C-78.4352222,57.0856229 -80.5495694,54.8514507 -82.6616389,52.536778 C-84.4889861,52.995404 -86.3163333,53.424551 -88.1436806,53.8128809 L-88.1436806,62.3289263 C-89.2990833,62.5777976 -90.46075,62.8232674 -91.6582917,63.0494625 L-91.6582917,42.5938329 C-89.5268611,42.122168 -86.4444583,41.520115 -82.2920694,40.4225871 C-76.6522917,38.908951 -73.9884306,40.0087465 -73.989,43.8551963 C-73.9878611,47.6744346 -76.7183472,49.9380859 -79.0644583,51.1813083 L-79.0644583,51.1813083 Z M-68.6795,56.721103 C-67.5764861,56.3288048 -66.4882778,55.9302707 -65.4103194,55.5266344 L-65.4103194,34.1747282 C-66.491125,34.6072766 -67.5810417,35.0375574 -68.6795,35.4627361 L-68.6795,56.721103 Z M26.8573333,32.0346622 C30.3195556,32.8521391 33.7857639,33.8102083 37.2462778,34.9094369 L37.2462778,31.5669656 C33.7857639,30.4683039 30.3195556,29.5102347 26.8573333,28.6921909 L26.8573333,23.8428864 C30.8935556,24.643923 34.9343333,25.6354397 38.9677083,26.8185702 C38.950625,25.6847604 38.9335417,24.5503837 38.9158889,23.416007 C34.1559028,22.0095159 29.0941111,20.8065437 23.5124167,19.9142354 L23.5124167,40.3619283 C29.1658611,41.4940374 34.4087361,42.9997368 39.4676806,44.721427 C39.4859028,43.5757122 39.504125,42.4299974 39.5217778,41.2842826 C35.3050417,39.868721 31.078625,38.6629143 26.8573333,37.6651617 L26.8573333,32.0346622 Z M2.43613889,32.8691462 C-1.86202778,27.9478447 -6.22454167,23.231196 -10.5227083,18.6568403 C-11.8512222,18.7554818 -13.1569583,18.8665951 -14.4296667,18.9975502 L-14.4296667,39.1782309 C-13.3579722,39.0365046 -12.2777361,38.9015813 -11.171875,38.7882003 C-11.1826944,33.5233545 -11.192375,28.2585086 -11.2020556,22.9936628 C-6.66472222,27.8769816 -2.06304167,32.9196007 2.47258333,38.1884149 C3.51694444,38.1986192 4.56073611,38.2190278 5.60452778,38.2502075 L5.60452778,18.2968557 C4.55276389,18.2679436 3.46740278,18.2577393 2.378625,18.2486688 C2.39855556,23.1223502 2.41734722,27.9960317 2.43613889,32.8691462 L2.43613889,32.8691462 Z M162.201181,47.8575449 C159.171736,47.982264 156.752736,48.0599299 156.741347,45.9368711 C156.732236,44.0660849 158.527125,42.4889555 161.430153,41.8205746 C163.166389,41.4220405 165.251125,41.4764633 165.861569,43.1352271 C166.905361,42.7485979 168.239569,42.2389504 169.475833,41.7281691 C168.315875,38.5410297 164.695917,37.9860298 161.368653,38.7774291 C156.127486,40.0223523 152.881653,43.058128 152.899799,46.700492 C152.922653,51.8769006 158.733833,51.3525136 160.939861,51.2283614 C164.378167,51.0475188 166.582486,51.0741633 166.593875,53.3757972 C166.599,54.8900002 164.82575,56.8322164 161.423319,57.6168128 C159.984333,57.9507198 158.318708,57.9212407 157.191778,56.9790448 L153.146444,57.8152295 C154.367333,60.2359134 157.347236,61.794335 161.487667,60.8141564 C166.99875,59.5040392 170.550375,56.2477374 170.531093,52.518637 C170.510514,47.648357 166.296625,47.6812375 162.201181,47.8575449 L162.201181,47.8575449 Z M100.582167,49.8054301 C100.582167,47.5497155 98.9581111,47.1409771 95.5807361,46.4998077 L90.3509583,45.4510336 L90.3509583,50.461906 L95.7521389,51.6370999 C98.2024583,52.1002612 100.582167,52.1989026 100.582167,49.8054301 L100.582167,49.8054301 Z M99.1295139,55.0691422 L104.886597,64.6997226 C103.358778,64.5290842 101.865694,64.3391711 100.405639,64.1316839 L94.8239444,54.7856897 L90.3509583,53.9364662 L90.3509583,62.3499018 C89.1625278,62.0942277 87.9991528,61.8266486 86.8517222,61.5494321 L86.8517222,40.8953858 C90.8059444,41.991213 95.9895972,43.1306918 95.9975694,43.1323925 C101.589514,44.1925047 104.198139,46.4850681 104.198139,50.3445567 C104.198139,53.3837339 102.107708,54.7975947 99.1295139,55.0691422 L99.1295139,55.0691422 Z M79.5736528,44.7344658 C79.5736528,42.3528983 77.3340278,41.2134194 73.7129306,40.0257537 L69.7615556,38.7961369 L69.7615556,44.9277804 L73.7129306,46.1573971 C77.244625,47.3138831 79.5736528,47.7027799 79.5736528,44.7344658 L79.5736528,44.7344658 Z M82.9954444,45.3263145 C82.9954444,48.4970136 80.237625,51.5520641 74.0238472,49.5163086 L69.7615556,48.1523354 L69.7615556,56.2925229 L66.3443194,55.0203883 L66.3443194,34.1945699 C73.3370972,36.3686502 75.5026944,37.2093701 76.7213056,37.6957745 C81.0206111,39.5251767 82.9954444,41.7559474 82.9954444,45.3263145 L82.9954444,45.3263145 Z M62.5802917,32.8300298 L58.8942778,31.3209289 L53.3040417,36.3499423 L47.5304444,26.2669717 C45.9063889,25.6779575 44.2606944,25.1059505 42.5825417,24.5588872 L50.3930417,38.0773015 L41.9242639,45.5763196 C43.1252222,46.0048997 44.3210556,46.4431172 45.5100556,46.8915389 L52.1736944,41.1595635 L58.1978472,51.5866453 L63.2750139,53.7612925 L55.0459722,39.3902533 L62.5802917,32.8300298 Z M113.373597,56.9433298 C116.986722,57.2369865 120.675014,57.3906177 124.474347,57.3906177 L124.474347,54.1439534 C120.805417,54.1439534 117.093208,53.9965581 113.373597,53.6943978 L113.373597,48.9029175 C118.077208,49.2288879 122.002958,49.269705 126.315931,49.1846693 C126.303972,48.6245672 126.299417,48.1109514 126.257278,45.7741694 C120.151125,45.866008 115.096736,45.6330101 109.904542,45.1398028 L109.904542,65.1810249 C116.378556,65.7031443 121.238194,65.8074548 126.859181,65.7082464 C126.863736,65.4559738 126.903028,62.7348302 126.908153,62.4825576 C122.420361,62.5670264 117.864806,62.4207649 113.373597,62.0556782 L113.373597,56.9433298 Z M140.516736,52.93021 C137.484444,52.6960782 134.864431,52.4931263 134.864431,50.3893422 C134.864431,48.5684436 136.725375,47.248689 139.722931,46.9453949 C141.670431,46.7464113 143.923153,47.1319066 144.377,49.0605171 C145.298361,48.8791075 146.747597,48.5814825 148.196833,48.2475755 C147.284014,44.8121318 143.471014,43.553036 139.701292,43.9634751 C134.350792,44.5388836 130.895403,47.183495 130.895403,50.7011399 C130.892556,55.7142799 136.799972,55.9172319 139.169431,56.0748314 C142.754653,56.310097 145.02275,56.6156587 145.024458,58.8623028 C145.023319,60.3351218 143.182875,62.0120265 139.668264,62.3674759 C137.906403,62.539248 135.864375,62.1832318 134.865,60.7194833 L130.797458,61.204187 C131.835556,64.3034561 135.40825,65.9520155 139.689903,65.5001923 C145.404278,64.8839667 149.095417,62.1248406 149.094278,58.4728392 C149.094278,53.5923549 144.537583,53.2403069 140.516736,52.93021 L140.516736,52.93021 Z M-156.939972,52.4857565 L-160.996694,41.3636492 C-161.243833,41.9503958 -162.944764,45.7237148 -164.6605,49.5134741 C-162.08775,50.6076006 -159.512722,51.5957158 -156.939972,52.4857565 L-156.939972,52.4857565 Z M-157.922833,39.7468365 L-149.56225,62.8232674 C-150.886208,62.533579 -152.199917,62.217813 -153.510778,61.8861736 L-155.594375,56.1746067 C-159.047486,55.0929522 -162.505722,53.8270535 -165.958264,52.3769108 C-166.901264,54.4540503 -167.722403,56.2585086 -168.150625,57.1916341 C-169.204667,56.7800611 -170.268389,56.3905975 -171.308764,55.9501124 L-162.939069,37.7978174 C-161.284264,38.4871738 -159.616361,39.1442166 -157.922833,39.7468365 L-157.922833,39.7468365 Z M-122.649736,45.8206556 C-121.951597,45.8206556 -121.289903,45.7968456 -120.604861,45.7889089 L-120.604861,65.7416938 C-121.291611,65.7490636 -121.949889,65.7723067 -122.649736,65.7723067 C-123.114403,65.7723067 -123.577931,65.7365917 -124.043167,65.7314895 C-124.036333,62.6322204 -124.007292,50.772003 -123.978819,48.3416817 C-124.903028,50.8644085 -130.361722,63.0290539 -131.427722,65.4298961 C-132.753389,65.3369237 -134.076208,65.2207082 -135.397319,65.0863518 C-136.620486,62.1322103 -141.875319,49.5871718 -142.779597,47.1188678 C-142.751694,49.466421 -142.724361,60.5573485 -142.716389,64.1271487 C-143.863819,63.9417708 -145.004986,63.7354174 -146.146153,63.5188597 L-146.000944,43.1936183 C-144.032944,43.6380717 -142.051278,44.0281023 -140.054806,44.3597417 C-138.869222,47.3881476 -134.090444,59.5221802 -133.222042,61.9428641 L-126.677986,45.7027394 C-125.335806,45.7537608 -123.995333,45.8206556 -122.649736,45.8206556 L-122.649736,45.8206556 Z" id="Fill-1"></path>
            </g>
        </g>
    </g>
</svg>