<?xml version="1.0" encoding="UTF-8"?>
<svg width="98px" height="40px" viewBox="0 0 98 40" version="1.1" xmlns="http://www.w3.org/2000/svg" xmlns:xlink="http://www.w3.org/1999/xlink">
    <!-- Generator: Sketch 63.1 (92452) - https://sketch.com -->
    <title>Group 3</title>
    <desc>Created with Sketch.</desc>
    <defs>
        <polygon id="path-1" points="0 0 196 0 196 40 0 40"></polygon>
    </defs>
    <g id="Page-1" stroke="none" stroke-width="1" fill="none" fill-rule="evenodd">
        <g id="design_ResyGlobalAccess_LP_m" transform="translate(0.000000, -2311.000000)">
            <g id="Group-3" transform="translate(-98.000000, 2311.000000)">
                <g>
                    <mask id="mask-2" fill="white">
                        <use xlink:href="#path-1"></use>
                    </mask>
                    <g id="Clip-2"></g>
                    <path d="M194.021217,27.3105087 L184.625194,4.66184798 C177.213128,11.1647871 167.490439,14.7325086 157.112783,14.7325086 C131.563639,14.7325086 126.372089,1.59327273 98.0008167,1.59327273 C69.6257333,1.59327273 64.4409889,14.7325086 38.8877611,14.7325086 C28.5095611,14.7325086 18.7868722,11.1647871 11.3745333,4.66184798 L1.97851111,27.3105087 C12.7827389,34.5714806 25.5300889,38.4064573 38.8877611,38.4069972 C68.8237667,38.4069972 77.3445944,25.2677613 97.9994556,25.2677613 C118.656222,25.2677613 127.174328,38.4069972 157.112783,38.4069972 C170.470183,38.4064573 183.217533,34.5714806 194.021217,27.3105087 L194.021217,27.3105087 Z M185.231706,1.93584526 L196,27.8933409 C184.036922,36.113192 170.917172,39.9994601 157.112783,40 C126.817717,40 118.205967,26.8607641 97.9994556,26.8607641 C77.7896778,26.8607641 69.1836444,40 38.8877611,40 C25.0556056,39.9994601 11.9402111,36.0978046 0,27.8933409 L10.7682944,1.93584526 C18.9668111,9.56611528 28.29995,13.1395058 38.8877611,13.1395058 C63.9689556,13.1395058 69.2568722,0 98.0008167,0 C126.746394,0 132.031044,13.1395058 157.112783,13.1395058 C167.701683,13.1395058 177.034278,9.56476551 185.231706,1.93584526 L185.231706,1.93584526 Z M187.622633,26.4922759 L181.151367,12.1927747 C174.015606,16.5015219 165.72535,18.7748105 157.112783,18.7753504 C130.595072,18.7753504 125.253256,5.63584459 98.0008167,5.63584459 C70.7554556,5.63584459 65.3981222,18.7753504 38.8877611,18.7753504 C30.2743778,18.7748105 21.9841222,16.5015219 14.8483611,12.1927747 L8.37709444,26.4922759 C17.5681333,31.6435518 28.1015,34.3636155 38.8877611,34.3641554 C68.7031722,34.3641554 75.4793278,21.2249195 97.9994556,21.2249195 C120.515772,21.2249195 127.300911,34.3641554 157.112783,34.3641554 C167.898772,34.3636155 178.432139,31.6435518 187.622633,26.4922759 L187.622633,26.4922759 Z M181.859417,9.86630493 L189.682539,27.1525852 C179.399344,33.0748517 168.604644,35.9566183 157.112783,35.9571582 C127.063533,35.9571582 119.969694,22.8181922 97.9994556,22.8181922 C76.0235,22.8181922 68.9424556,35.9571582 38.8877611,35.9571582 C27.3890944,35.9566183 16.5952111,33.0716122 6.31773333,27.1525852 L14.1405833,9.86630493 C21.5120889,14.5311224 29.4182389,17.1818078 38.8877611,17.1820777 C65.0398778,17.1820777 70.2924056,4.04311177 98.0008167,4.04311177 C125.704872,4.04311177 130.968289,17.1820777 157.112783,17.1820777 C166.608983,17.1818078 174.5135,14.5149251 181.859417,9.86630493 L181.859417,9.86630493 Z M85.5651611,15.8957435 C85.0032944,14.7209006 83.5338389,11.5894259 83.5338389,11.5894259 C83.4099778,11.9306486 82.0995,15.5307647 81.5781944,16.9761023 C82.8973833,16.5074609 84.2337222,16.1443718 85.5651611,15.8957435 L85.5651611,15.8957435 Z M84.4240056,10.0074912 C85.9451833,12.9683546 87.4410444,15.964312 88.8745667,18.9168067 C88.65815,18.9527107 87.3572,19.1797426 87.1497667,19.2399425 C86.9703722,18.855257 86.3989778,17.6544985 86.2163167,17.269813 C84.4517722,17.5667632 82.6804222,18.0669893 80.9420111,18.7518644 C80.6575389,19.5463411 80.3684389,20.3475667 80.0905,21.1301654 C79.4178389,21.353418 78.7522556,21.5847692 78.0923889,21.8228692 C79.4605778,18.1158511 80.8998167,14.301121 82.3719944,10.4769425 C83.0405722,10.3109203 83.7249389,10.1546166 84.4240056,10.0074912 L84.4240056,10.0074912 Z M44.5344667,27.2165644 C46.3406611,27.0913054 48.1490333,26.8923488 49.9544111,26.6196945 L49.9544111,25.0283115 C48.1490333,25.3009658 46.3406611,25.4999224 44.5344667,25.6251814 L44.5344667,23.243101 C46.6398333,23.0967855 48.7481944,22.8500469 50.8519278,22.5034251 C50.8429444,21.9513677 50.8339611,21.3993103 50.8249778,20.8472529 C48.3845056,21.2656827 45.7477611,21.5639826 42.8687389,21.710838 L42.8687389,31.2270117 C45.8591,31.0987832 48.5943889,30.8336876 51.1162556,30.455751 C51.1249667,29.9344685 51.1331333,29.4131859 51.1418444,28.8919034 C48.9417444,29.2155791 46.7364722,29.4296532 44.5344667,29.5338557 L44.5344667,27.2165644 Z M73.0064611,22.4985659 C70.9002778,23.1761522 70.1173667,21.7683384 70.1173667,19.5773859 C70.1173667,17.8294291 71.3467222,15.487302 73.1109944,14.921207 C74.2088667,14.5705358 75.2427667,14.6609706 75.5607222,15.7607661 L77.1265444,15.2797068 C76.7574111,13.2437084 75.0317944,12.7051487 73.0483833,13.3400822 C70.2717167,14.2298529 68.4775,16.8778387 68.4775,20.0873304 C68.4775,23.2169154 70.1729,24.9365269 73.0690722,24.0076127 C75.1793389,23.3316461 76.6768333,21.6968004 77.1303556,19.6545929 L75.4423056,20.0873304 C75.0715389,21.2465159 74.2186667,22.1098311 73.0064611,22.4985659 L73.0064611,22.4985659 Z M58.0663611,23.4228908 C59.7037778,22.9896135 60.3399611,22.0007694 60.3402333,21.4883953 C60.3399611,20.3427075 59.7473333,20.4150554 58.1534722,20.8386143 C57.2300944,21.0815736 56.3072611,21.305636 55.3849722,21.5108016 L55.3849722,23.9995141 C56.2781333,23.8248534 57.1723833,23.6326456 58.0663611,23.4228908 L58.0663611,23.4228908 Z M59.7252833,24.3720516 C60.75755,25.5026219 61.7900889,26.5926991 62.8215389,27.6493018 C62.2368056,27.8425894 61.6417278,28.0307478 61.03685,28.214587 C60.0260889,27.1836299 59.0153278,26.1197384 58.0056556,25.0175133 C57.1320944,25.2359067 56.2585333,25.4402624 55.3849722,25.6251814 L55.3849722,29.6804411 C54.8326333,29.7989512 54.2773,29.9158416 53.7048167,30.0235535 L53.7048167,20.2827776 C54.7237444,20.0581752 56.1972833,19.7714833 58.1823278,19.248851 C60.8784167,18.5280719 62.1518722,19.0517841 62.1516,20.8834268 C62.1521444,22.7021117 60.8468389,23.7800409 59.7252833,24.3720516 L59.7252833,24.3720516 Z M64.6898,27.0100491 C65.2170944,26.8232404 65.7373111,26.6334622 66.2526278,26.4412545 L66.2526278,16.2736801 C65.73595,16.4796555 65.2149167,16.6845512 64.6898,16.8870172 L64.6898,27.0100491 Z M110.361067,15.254601 C112.016178,15.6438757 113.673194,16.1000992 115.327489,16.6235414 L115.327489,15.0318884 C113.673194,14.5087162 112.016178,14.0524927 110.361067,13.662948 L110.361067,11.3537554 C112.290578,11.7352014 114.222267,12.2073522 116.150417,12.7707477 C116.14225,12.2308383 116.134083,11.6906589 116.125644,11.1504795 C113.850139,10.4807219 111.430356,9.90787795 108.762033,9.48296923 L108.762033,19.2199659 C111.464656,19.7590654 113.971006,20.4760651 116.389428,21.2959176 C116.398139,20.7503391 116.40685,20.2047607 116.415289,19.6591822 C114.399483,18.9851052 112.37905,18.4109116 110.361067,17.9357913 L110.361067,15.254601 Z M98.6865444,15.6519744 C96.6318111,13.3084975 94.5463167,11.0624743 92.4915833,8.88420967 C91.8564889,8.93118179 91.2322833,8.98409292 90.6238667,9.04645246 L90.6238667,18.6563004 C91.1361889,18.5888117 91.6525944,18.5245625 92.18125,18.4705716 C92.1760778,15.9635021 92.17145,13.4564327 92.1668222,10.9493632 C94.3358889,13.2747532 96.5357167,15.6760004 98.7039667,18.1849595 C99.2032222,18.1898187 99.7022056,18.199537 100.201189,18.2143845 L100.201189,8.71278843 C99.6983944,8.69902074 99.1795389,8.69416155 98.65905,8.68984228 C98.6685778,11.010643 98.6775611,13.3314437 98.6865444,15.6519744 L98.6865444,15.6519744 Z M175.062028,22.7893071 C173.613806,22.8486971 172.457406,22.8856809 172.451961,21.8747005 C172.447606,20.98385 173.30565,20.2328359 174.693439,19.9145593 C175.523444,19.7247812 176.52005,19.7506968 176.811872,20.5405843 C177.310856,20.3564752 177.948672,20.1137859 178.539667,19.8705567 C177.98515,18.3528713 176.254633,18.0885856 174.664039,18.4654424 C172.158506,19.058263 170.606839,20.5038705 170.615514,22.2383295 C170.626439,24.703286 173.404467,24.4535779 174.459056,24.3944578 C176.102733,24.3083423 177.156506,24.3210301 177.16195,25.4170463 C177.1644,26.1380953 176.3167,27.0629602 174.690172,27.4365775 C174.002267,27.5955808 173.206017,27.5815432 172.667289,27.1328785 L170.733422,27.5310617 C171.317067,28.6837683 172.741606,29.4258738 174.720933,28.9591221 C177.3555,28.3352568 179.05335,26.7846369 179.044132,25.0088748 C179.034294,22.6896938 177.01985,22.7053512 175.062028,22.7893071 L175.062028,22.7893071 Z M145.605133,23.7168715 C145.605133,22.6427217 144.828756,22.4480843 143.214206,22.1427656 L140.714117,21.6433493 L140.714117,24.0294791 L143.296144,24.5890952 C144.467517,24.8096482 145.605133,24.8566203 145.605133,23.7168715 L145.605133,23.7168715 Z M144.910694,26.223401 L147.662861,30.8093917 C146.932489,30.7281354 146.218722,30.6377005 145.520744,30.5388971 L142.852422,26.0884237 L140.714117,25.6840315 L140.714117,29.6904294 C140.145989,29.5686799 139.589839,29.4412612 139.041311,29.3092534 L139.041311,19.4739932 C140.931622,19.9958157 143.409661,20.5384247 143.413472,20.5392345 C146.086694,21.0440499 147.333744,22.1357467 147.333744,23.9735984 C147.333744,25.4208257 146.334417,26.0940927 144.910694,26.223401 L144.910694,26.223401 Z M135.562039,21.3021266 C135.562039,20.1680468 134.491389,19.6254378 132.760328,19.0598827 L130.871378,18.4743509 L130.871378,21.3941811 L132.760328,21.9797129 C134.44865,22.5304205 135.562039,22.7156095 135.562039,21.3021266 L135.562039,21.3021266 Z M137.197822,21.5839593 C137.197822,23.093816 135.87945,24.548602 132.908961,23.5791946 L130.871378,22.9296835 L130.871378,26.8059633 L129.237772,26.2001849 L129.237772,16.2831285 C132.580661,17.3184048 133.615922,17.7187477 134.198478,17.9503688 C136.253756,18.8215127 137.197822,19.8837845 137.197822,21.5839593 L137.197822,21.5839593 Z M127.438383,15.6333475 L125.676289,14.9147281 L123.003883,17.3094963 L120.243822,12.5080818 C119.467444,12.2275988 118.680722,11.9552145 117.878483,11.6947082 L121.612283,18.1320483 L117.563794,21.7030093 C118.137911,21.9070951 118.709578,22.1157701 119.277978,22.3293043 L122.463522,19.5997921 L125.343361,24.5650692 L127.770494,25.6006155 L123.836611,18.7572635 L127.438383,15.6333475 Z M151.720061,27.1158713 C153.447311,27.2557079 155.210494,27.3288656 157.026761,27.3288656 L157.026761,25.7828349 C155.272833,25.7828349 153.498217,25.7126467 151.720061,25.5687608 L151.720061,23.2871036 C153.968617,23.4423275 155.845317,23.4617643 157.907128,23.4212711 C157.901411,23.1545558 157.899233,22.9099769 157.879089,21.7972235 C154.96005,21.8409562 152.543806,21.7300048 150.061683,21.4951442 L150.061683,31.0385833 C153.156578,31.2872116 155.479722,31.3368832 158.166828,31.2896412 C158.169006,31.1695113 158.187789,29.8737287 158.190239,29.7535988 C156.044856,29.7938221 153.867078,29.7241738 151.720061,29.5503229 L151.720061,27.1158713 Z M164.695806,25.2048619 C163.246222,25.0933706 161.993728,24.9967268 161.993728,23.9949249 C161.993728,23.1278303 162.88335,22.4993757 164.316328,22.35495 C165.247328,22.2601959 166.324239,22.4437651 166.5412,23.362151 C166.981656,23.2757655 167.674461,23.1340393 168.367267,22.9750359 C167.930894,21.3391104 166.108094,20.7395409 164.305983,20.9349882 C161.748183,21.2089922 160.096339,22.4683309 160.096339,24.1433999 C160.094978,26.5306095 162.919011,26.6272533 164.051728,26.7023007 C165.765639,26.8143319 166.8499,26.9598375 166.850717,28.029668 C166.850172,28.7310104 165.97035,29.5295364 164.290194,29.698798 C163.447939,29.7805943 162.47175,29.6110627 161.994,28.9140397 L160.049517,29.144851 C160.545778,30.6206934 162.2537,31.4057217 164.300539,31.1905678 C167.032289,30.897127 168.796833,29.5832574 168.796289,27.8442091 C168.796289,25.520169 166.617967,25.3525271 164.695806,25.2048619 L164.695806,25.2048619 Z M22.4969889,24.9932174 L20.5576778,19.6969758 C20.4395333,19.976379 19.6264056,21.7731975 18.8062,23.5778448 C20.0361,24.0988574 21.2670889,24.5693885 22.4969889,24.9932174 L22.4969889,24.9932174 Z M22.0271333,18.927065 L26.0239,29.9158416 C25.3909833,29.7778948 24.7629667,29.62753 24.1363111,29.4696065 L23.14025,26.7498127 C21.4894944,26.2347391 19.8362889,25.6319302 18.1858056,24.9413861 C17.7350056,25.9305002 17.3424611,26.789766 17.13775,27.2341115 C16.6338667,27.0381244 16.1253556,26.8526655 15.6280056,26.6429107 L19.6291278,17.9989607 C20.4202056,18.3272256 21.2175444,18.6401031 22.0271333,18.927065 L22.0271333,18.927065 Z M38.8893944,21.8193598 C39.2231389,21.8193598 39.5394611,21.8080217 39.8669444,21.8042423 L39.8669444,31.3055685 C39.5386444,31.3090779 39.2239556,31.320146 38.8893944,31.320146 C38.6672611,31.320146 38.4456722,31.3031389 38.2232667,31.3007093 C38.2265333,29.8248669 38.2404167,24.1771443 38.2540278,23.0198484 C37.8122111,24.2211469 35.2026889,30.0138352 34.6930889,31.1570934 C34.0593556,31.1128208 33.4269833,31.0574801 32.7954278,30.9935008 C32.2106944,29.5867668 29.6986278,23.6129389 29.2663389,22.4375561 C29.2796778,23.5554386 29.2927444,28.8368326 29.2965556,30.5367375 C28.7480278,30.4484623 28.2024944,30.3501988 27.6569611,30.2470761 L27.7263778,20.5683897 C28.6671778,20.7800341 29.6145111,20.965763 30.5689222,21.1236865 C31.1356889,22.5657846 33.4201778,28.3438953 33.8353167,29.4966019 L36.9636944,21.7632092 C37.6053222,21.7875051 38.2461333,21.8193598 38.8893944,21.8193598 L38.8893944,21.8193598 Z" id="Fill-1" fill="#FFFFFF" opacity="0.235514323" mask="url(#mask-2)"></path>
                </g>
            </g>
        </g>
    </g>
</svg>