<?xml version="1.0" encoding="utf-8"?>
<!-- Generator: Adobe Illustrator 24.3.0, SVG Export Plug-In . SVG Version: 6.00 Build 0)  -->
<svg version="1.1" id="Layer_1" xmlns="http://www.w3.org/2000/svg" xmlns:xlink="http://www.w3.org/1999/xlink" x="0px" y="0px"
	 viewBox="0 0 22 22" style="enable-background:new 0 0 22 22;" xml:space="preserve">
<style type="text/css">
	.st0{fill:#006FCF;}
	.st1{opacity:0.3799;fill:#006FCF;}
</style>
<desc>Created with Sketch.</desc>
<g id="Page-1">
	<g id="design_ResyGlobalAccess_LP_m" transform="translate(-300.000000, -441.000000)">
		<g id="HERO-Banner" transform="translate(-119.000000, 63.000000)">
			<g id="Group-15" transform="translate(139.000000, 366.000000)">
				<g id="Group-10" transform="translate(281.000000, 13.000000)">
					<g id="Group-9">
						<path class="st0" d="M14,12.5c-0.1,0-0.3,0-0.4-0.1L10,8.7l-3.6,3.6c-0.2,0.2-0.5,0.2-0.7,0s-0.2-0.5,0-0.7l4-4
							c0.2-0.2,0.5-0.2,0.7,0l4,4c0.2,0.2,0.2,0.5,0,0.7C14.3,12.5,14.1,12.5,14,12.5z"/>
						<path class="st1" d="M10,20.5C4.2,20.5-0.5,15.8-0.5,10C-0.5,4.2,4.2-0.5,10-0.5c5.8,0,10.5,4.7,10.5,10.5
							C20.5,15.8,15.8,20.5,10,20.5z M10,0.5c-5.2,0-9.5,4.3-9.5,9.5s4.3,9.5,9.5,9.5s9.5-4.3,9.5-9.5S15.2,0.5,10,0.5z"/>
					</g>
				</g>
			</g>
		</g>
	</g>
</g>
</svg>
