<?xml version="1.0" encoding="UTF-8"?>
<svg width="57px" height="52px" viewBox="0 0 57 52" version="1.1" xmlns="http://www.w3.org/2000/svg" xmlns:xlink="http://www.w3.org/1999/xlink">
    <!-- Generator: Sketch 63.1 (92452) - https://sketch.com -->
    <title>Mask</title>
    <desc>Created with Sketch.</desc>
    <g id="Page-1" stroke="none" stroke-width="1" fill="none" fill-rule="evenodd">
        <g id="design_ResyGlobalAccess_LP" transform="translate(-1059.000000, -651.000000)" fill="#00175A">
            <g id="Group-7" transform="translate(924.000000, 621.000000)">
                <path d="M182.598324,71.3932406 C176.737776,68.2252025 171.151407,65.4793053 171.151407,65.4793053 C170.235683,65.0569428 169.64591,62.9288861 169.340585,61.50316 C169.261811,61.216021 169.19778,61.047952 169.136816,60.6256625 C175.241722,55.9790477 173.959709,45.9994937 173.959709,45.9994937 C173.391058,35.5735668 163.977784,34.9040049 161.801088,34.9040049 C161.640722,34.9040049 161.520034,34.9076288 161.444656,34.9112539 C161.373502,34.90763 161.256127,34.9040049 161.099157,34.9040049 C158.965202,34.9040049 149.49817,35.572887 148.929436,45.9994937 C148.929436,45.9994937 147.647506,55.979049 153.752412,60.6256625 C153.647048,61.0903828 153.611678,61.1346298 153.489581,61.5570679 C153.18434,62.982794 152.653543,65.0569428 151.737737,65.4793053 C151.737737,65.4793053 146.153438,68.2252025 140.292724,71.3932406 C136.3284,73.536246 135.263162,75.8722395 135,79.0572668 C135.192505,80.7086679 136.708853,82 138.573019,82 L184.317034,82 C186.188903,82 187.709891,80.698097 187.89229,79.0368778 C187.635092,75.8623496 186.609449,73.5316415 182.598324,71.3932406 Z M161.801086,38.6151359 C164.669111,38.6151359 169.534167,39.5984138 169.893333,46.183799 L169.900126,46.3077745 L169.915947,46.4310714 C170.182091,48.5028777 170.130817,55.0342783 166.527232,57.777079 L164.807775,59.0856998 L165.100177,61.110014 C165.17597,61.6346878 165.264519,61.963729 165.356216,62.2818253 L165.368723,62.3257678 C166.150505,65.905069 167.315888,67.8384785 169.247895,68.7600695 C169.688983,68.9775187 175.020225,71.6114474 180.54273,74.5966164 C182.803336,75.8017969 183.456893,76.7959465 183.712019,78.288869 L139.19162,78.288869 C139.476981,76.7461144 140.194816,75.7607973 142.369525,74.5852903 L142.991889,74.2498987 C148.271359,71.4133599 153.224832,68.9654352 153.64274,68.759313 C156.116147,67.5775388 156.918057,64.882302 157.455314,62.4083673 L157.503605,62.2499617 C157.581469,62.003067 157.638541,61.8226146 157.739598,61.37654 L158.232787,59.2009937 L156.361994,57.777079 C152.78036,55.0509641 152.702414,48.6547883 152.973279,46.4310714 L152.989101,46.3077745 L152.995893,46.1837235 C153.355059,39.5983383 158.22699,38.6151359 161.099156,38.6151359 L161.217773,38.6165709 L161.446476,38.626613 L161.658529,38.6172506 C161.690421,38.6158156 161.738547,38.6151359 161.801086,38.6151359 Z M183.857143,30 C184.981027,30 185.892857,30.8305353 185.892857,31.8555655 L185.892857,31.8555655 L185.892857,35.5666966 L189.964286,35.5666966 C191.08817,35.5666966 192,36.3972307 192,37.4222621 C192,38.4472935 191.08817,39.2778276 189.964286,39.2778276 L189.964286,39.2778276 L185.892857,39.2778276 L185.892857,42.9889587 C185.892857,44.0139901 184.981027,44.8445242 183.857143,44.8445242 C182.733259,44.8445242 181.821429,44.0139889 181.821429,42.9889587 L181.821429,42.9889587 L181.821429,39.2778276 L177.75,39.2778276 C176.626116,39.2778276 175.714286,38.4472935 175.714286,37.4222621 C175.714286,36.3972307 176.626116,35.5666966 177.75,35.5666966 L177.75,35.5666966 L181.821429,35.5666966 L181.821429,31.8555655 C181.821429,30.8305353 182.733259,30 183.857143,30 Z" id="Mask"></path>
            </g>
        </g>
    </g>
</svg>