<?xml version="1.0" encoding="UTF-8"?>
<svg width="52px" height="59px" viewBox="0 0 52 59" version="1.1" xmlns="http://www.w3.org/2000/svg" xmlns:xlink="http://www.w3.org/1999/xlink">
    <!-- Generator: Sketch 63.1 (92452) - https://sketch.com -->
    <title>Mask</title>
    <desc>Created with Sketch.</desc>
    <defs>
        <path d="M160.493446,30.654683 C162.014477,29.7817723 163.983149,29.7817723 165.507738,30.654683 L165.507738,30.654683 L186.489885,42.6775837 C188.038224,43.56526 189,45.2195384 189,46.9942996 L189,46.9942996 L189,71.0406922 C189,72.8160472 188.038224,74.4697319 186.488697,75.3568168 L186.488697,75.3568168 L165.507738,87.3803112 C164.745445,87.8161776 163.878659,88.046511 163,88.046511 C162.121341,88.046511 161.254555,87.8161776 160.493446,87.3803124 L160.493446,87.3803124 L139.510115,75.356818 C137.961776,74.4697331 137,72.8160484 137,71.0406934 L137,71.0406934 L137,46.9942996 C137,45.2195384 137.961776,43.56526 139.509522,42.6775837 L139.509522,42.6775837 Z M163,33.6165559 C162.759556,33.6165559 162.522674,33.6797504 162.314289,33.7990517 L162.314289,33.7990517 L141.330364,45.8219535 C140.90944,46.0635105 140.647623,46.5129586 140.647623,46.9942996 L140.647623,46.9942996 L140.647623,71.0406922 C140.647623,71.5226246 140.90944,71.9714813 141.330364,72.2124481 L141.330364,72.2124481 L162.313696,84.2359426 C162.730466,84.4745476 163.269535,84.4745476 163.687492,84.2359426 L163.687492,84.2359426 L184.668448,72.2124481 C185.091154,71.9714813 185.352377,71.5214443 185.352377,71.0406922 L185.352377,71.0406922 L185.352377,46.9942996 C185.352377,46.5129586 185.089967,46.0635105 184.668448,45.8219535 L184.668448,45.8219535 L163.686897,33.7990517 C163.477919,33.6797504 163.241037,33.6165559 163,33.6165559 Z M163.163856,42.0834389 C166.536007,42.0834389 170.571902,44.1027102 170.849749,49.7937595 C170.868747,49.9230992 171.425627,55.1056405 168.685161,58.3468682 C168.757592,58.6522086 168.82171,58.8518342 168.868017,58.9734985 C169.702744,59.4383023 171.892268,60.6673465 174.142348,62.0269143 C176.926749,63.6865088 177.43732,65.7607041 177.567929,67.5703138 L177.567929,67.5703138 L177.578615,67.723871 L177.564366,67.8762443 C177.382698,69.7212902 175.861667,71.1127509 174.024795,71.1127509 L174.024795,71.1127509 L151.956795,71.1127509 C150.130609,71.1127509 148.609578,69.7307385 148.419004,67.8975063 L148.419004,67.8975063 L148.402381,67.738044 L148.414255,67.5773991 C148.547834,65.7748784 149.059,63.706588 151.840432,62.0269155 C154.10001,60.66026 156.299627,59.4258985 157.105263,58.9782232 C157.148602,58.8541972 157.208564,58.6510283 157.280401,58.3279693 C154.558339,55.0843786 155.114031,49.9130596 155.141341,49.6756385 C155.409095,44.1027102 159.447958,42.0834389 162.822485,42.0834389 C162.95369,42.0846204 163.033244,42.0840291 163.163856,42.0834389 Z M163.16386,45.7121005 L163.061151,45.7180067 L162.884825,45.713282 L162.793282,45.7139982 C161.537627,45.7345804 158.957962,46.2206919 158.774719,49.9697553 C158.629858,51.3204662 158.670824,54.8646725 160.465544,56.3913804 L160.465544,56.3913804 L161.280678,57.0853398 L161.067544,58.1312956 C161.020643,58.3604511 160.993927,58.4549484 160.958305,58.5813362 L160.958305,58.5813362 L160.919716,58.7236723 C160.630589,60.2503802 160.204915,61.4540291 159.148149,61.9985646 C159.149337,61.9985646 156.486643,63.464441 153.733709,65.128759 C152.527333,65.8575632 152.199617,66.4895083 152.081473,67.5242454 L152.081473,67.5242454 L173.89775,67.4840833 C173.7802,66.4505301 173.459608,65.8504755 172.257982,65.1346665 C169.48783,63.4597162 166.818607,61.9914769 166.791297,61.9773027 C165.922136,61.5284435 165.375942,60.5067015 165.007856,58.5831079 C164.966297,58.4354581 164.929488,58.2872158 164.89268,58.0037275 L164.89268,58.0037275 L164.765631,57.0298231 L165.516054,56.3913804 C167.318493,54.8575836 167.348177,51.2354184 167.216379,50.0878763 C167.026398,46.2654954 164.595834,45.7121005 163.16386,45.7121005 L163.16386,45.7121005 Z" id="path-1"></path>
    </defs>
    <g id="Page-1" stroke="none" stroke-width="1" fill="none" fill-rule="evenodd">
        <g id="design_ResyGlobalAccess_LP" transform="translate(-327.000000, -651.000000)">
            <g id="Fill-1" transform="translate(190.000000, 621.000000)">
                <g id="Group-9">
                    <g id="Group-15">
                        <mask id="mask-2" fill="white">
                            <use xlink:href="#path-1"></use>
                        </mask>
                        <use id="Mask" fill="#00175A" xlink:href="#path-1"></use>
                    </g>
                </g>
            </g>
        </g>
    </g>
</svg>