<?xml version="1.0" encoding="UTF-8"?>
<svg width="57px" height="54px" viewBox="0 0 57 54" version="1.1" xmlns="http://www.w3.org/2000/svg" xmlns:xlink="http://www.w3.org/1999/xlink">
    <!-- Generator: Sketch 63.1 (92452) - https://sketch.com -->
    <title>Mask</title>
    <desc>Created with Sketch.</desc>
    <g id="Page-1" stroke="none" stroke-width="1" fill="none" fill-rule="evenodd">
        <g id="design_ResyGlobalAccess_LP" transform="translate(-692.000000, -647.000000)" fill="#00175A">
            <g id="Group-11" transform="translate(557.000000, 621.000000)">
                <g id="Group-12">
                    <path d="M176.494514,58.3916233 L179.550676,76.2795346 L163.541301,67.8321994 L147.530733,76.2795346 L150.586895,58.3928199 L138.739051,45.7176288 L155.527074,43.1088753 L163.540108,29.7396122 L171.55195,43.1088753 L188.262466,45.7188255 L176.494514,58.3916233 Z M191.81348,44.4850526 C191.399712,43.2847867 190.35754,42.4112133 189.105504,42.2161551 L173.755535,39.8192133 L166.471066,27.6633795 C165.853395,26.6306482 164.740871,26 163.541301,26 C162.340538,26 161.226821,26.6306482 160.610342,27.6633795 L153.324682,39.8180166 L137.897206,42.2149584 C136.643977,42.4112133 135.600613,43.2859834 135.186844,44.4886427 C134.773076,45.6936953 135.058063,47.0279889 135.927335,47.9554127 L146.760432,59.5464155 L143.951101,75.986349 C143.730504,77.275169 144.258744,78.5759557 145.311647,79.3442216 C146.366935,80.1100942 147.763254,80.2130083 148.913936,79.6062936 L163.541301,71.8877341 L178.166281,79.6062936 C178.667095,79.8695623 179.213222,80 179.758156,80 C180.466451,80 181.172361,79.7774183 181.769761,79.3442216 C182.822665,78.5759557 183.349712,77.275169 183.129116,75.986349 L180.319784,59.5380388 L191.082529,47.947036 C191.944646,47.0172188 192.224864,45.6853186 191.81348,44.4850526 L191.81348,44.4850526 Z" id="Mask"></path>
                </g>
            </g>
        </g>
    </g>
</svg>