<?xml version="1.0" encoding="UTF-8"?>
<svg width="27px" height="26px" viewBox="0 0 27 26" version="1.1" xmlns="http://www.w3.org/2000/svg" xmlns:xlink="http://www.w3.org/1999/xlink">
    <!-- Generator: Sketch 63.1 (92452) - https://sketch.com -->
    <title>Mask</title>
    <desc>Created with Sketch.</desc>
    <g id="Page-1" stroke="none" stroke-width="1" fill="none" fill-rule="evenodd">
        <g id="design_ResyGlobalAccess_LP" transform="translate(-546.000000, -2304.000000)" fill="#00175A">
            <path d="M565.655296,2319.59597 L567.102952,2328.20866 L559.519563,2324.14143 L551.93561,2328.20866 L553.383266,2319.59654 L547.771129,2313.49367 L555.723351,2312.23761 L559.518999,2305.80055 L563.314082,2312.23761 L571.229589,2313.49425 L565.655296,2319.59597 Z M572.911648,2312.90021 C572.715653,2312.3223 572.221993,2311.9017 571.628923,2311.80778 L564.357885,2310.6537 L560.907347,2304.80089 C560.614766,2304.30365 560.087781,2304 559.519563,2304 C558.950781,2304 558.423231,2304.30365 558.131215,2304.80089 L554.680112,2310.65312 L547.372361,2311.8072 C546.778726,2311.9017 546.284501,2312.32288 546.088505,2312.90194 C545.89251,2313.48215 546.027504,2314.12459 546.439264,2314.57112 L551.570731,2320.15198 L550.239995,2328.0675 C550.135502,2328.68804 550.385721,2329.31435 550.884464,2329.68425 C551.384338,2330.05301 552.045752,2330.10256 552.590812,2329.81044 L559.519563,2326.09409 L566.447186,2329.81044 C566.684414,2329.9372 566.943105,2330 567.201232,2330 C567.53674,2330 567.871118,2329.89283 568.154098,2329.68425 C568.652841,2329.31435 568.902495,2328.68804 568.798002,2328.0675 L567.467266,2320.14794 L572.565409,2314.56709 C572.97378,2314.1194 573.106514,2313.47812 572.911648,2312.90021 L572.911648,2312.90021 Z" id="Mask"></path>
        </g>
    </g>
</svg>