<?xml version="1.0" encoding="UTF-8"?>
<svg width="25px" height="23px" viewBox="0 0 25 23" version="1.1" xmlns="http://www.w3.org/2000/svg" xmlns:xlink="http://www.w3.org/1999/xlink">
    <!-- Generator: Sketch 63.1 (92452) - https://sketch.com -->
    <title>Mask</title>
    <desc>Created with Sketch.</desc>
    <defs>
        <path d="M970.876458,2325.30855 C968.306042,2323.9073 965.85588,2322.69277 965.85588,2322.69277 C965.454247,2322.50596 965.195574,2321.5647 965.06166,2320.93409 C965.02711,2320.80709 964.999026,2320.73275 964.972287,2320.54597 C967.649878,2318.49073 967.087592,2314.0767 967.087592,2314.0767 C966.838183,2309.46523 962.709554,2309.16908 961.754863,2309.16908 C961.684527,2309.16908 961.631594,2309.17068 961.598533,2309.17229 C961.567326,2309.17068 961.515845,2309.16908 961.446999,2309.16908 C960.511054,2309.16908 956.358846,2309.46493 956.109402,2314.0767 C956.109402,2314.0767 955.547152,2318.49073 958.224742,2320.54597 C958.17853,2320.75152 958.163017,2320.77109 958.109465,2320.95793 C957.975587,2321.58854 957.742782,2322.50596 957.341113,2322.69277 C957.341113,2322.69277 954.891859,2323.9073 952.32137,2325.30855 C950.582632,2326.25642 950.115422,2327.28964 950,2328.69841 C950.084432,2329.42883 950.749497,2330 951.567114,2330 L971.630278,2330 C972.451273,2330 973.118373,2329.42416 973.198373,2328.68939 C973.085567,2327.28527 972.635723,2326.25438 970.876458,2325.30855 Z M961.754862,2310.81054 C963.012768,2310.81054 965.146564,2311.24545 965.304093,2314.15822 L965.307073,2314.21305 L965.314012,2314.26759 C965.430742,2315.18397 965.408253,2318.07285 963.827733,2319.28602 L963.073586,2319.86483 L963.201832,2320.7602 C963.235074,2320.99227 963.273912,2321.1378 963.31413,2321.2785 L963.319615,2321.29794 C963.662502,2322.88109 964.173635,2323.73625 965.021007,2324.14388 C965.214466,2324.24006 967.55273,2325.40506 969.974882,2326.72543 C970.966376,2327.25849 971.253023,2327.69821 971.364921,2328.35854 L951.83843,2328.35854 C951.963588,2327.67617 952.278428,2327.24035 953.232248,2326.72042 C955.647314,2325.40389 957.98616,2324.23829 958.17664,2324.14354 C959.261468,2323.62083 959.613183,2322.42871 959.848822,2321.33447 L959.870002,2321.26441 L959.908424,2321.13807 C959.927265,2321.07255 959.946914,2320.99647 959.973508,2320.87808 L960.189819,2319.91582 L959.369296,2319.28602 C957.856585,2318.12489 957.768857,2315.45849 957.870517,2314.38429 L957.889957,2314.21305 L957.892936,2314.15819 C958.050464,2311.24542 960.187276,2310.81054 961.446998,2310.81054 L961.499023,2310.81118 L961.599332,2310.81562 L961.692337,2310.81148 C961.706325,2310.81084 961.727433,2310.81054 961.754862,2310.81054 Z M971.428571,2307 C971.921503,2307 972.321429,2307.36735 972.321429,2307.82073 L972.321429,2307.82073 L972.321429,2309.46219 L974.107143,2309.46219 C974.600074,2309.46219 975,2309.82954 975,2310.28292 C975,2310.7363 974.600074,2311.10365 974.107143,2311.10365 L974.107143,2311.10365 L972.321429,2311.10365 L972.321429,2312.74512 C972.321429,2313.1985 971.921503,2313.56585 971.428571,2313.56585 C970.93564,2313.56585 970.535714,2313.1985 970.535714,2312.74512 L970.535714,2312.74512 L970.535714,2311.10365 L968.75,2311.10365 C968.257068,2311.10365 967.857143,2310.7363 967.857143,2310.28292 C967.857143,2309.82954 968.257068,2309.46219 968.75,2309.46219 L968.75,2309.46219 L970.535714,2309.46219 L970.535714,2307.82073 C970.535714,2307.36735 970.93564,2307 971.428571,2307 Z" id="path-1"></path>
    </defs>
    <g id="Page-1" stroke="none" stroke-width="1" fill="none" fill-rule="evenodd">
        <g id="design_ResyGlobalAccess_LP" transform="translate(-950.000000, -2307.000000)">
            <mask id="mask-2" fill="white">
                <use xlink:href="#path-1"></use>
            </mask>
            <use id="Mask" fill="#00175A" xlink:href="#path-1"></use>
        </g>
    </g>
</svg>