<?xml version="1.0" encoding="UTF-8"?>
<svg width="35px" height="26px" viewBox="0 0 35 26" version="1.1" xmlns="http://www.w3.org/2000/svg" xmlns:xlink="http://www.w3.org/1999/xlink">
    <!-- Generator: Sketch 63.1 (92452) - https://sketch.com -->
    <title>Fill 1</title>
    <desc>Created with Sketch.</desc>
    <g id="Page-1" stroke="none" stroke-width="1" fill="none" fill-rule="evenodd">
        <g id="design_ResyGlobalAccess_LP" transform="translate(-543.000000, -2605.000000)" fill="#00175A">
            <path d="M567.517172,2612.13732 L576.502948,2612.13732 L576.502948,2609.23583 L567.517172,2609.23583 L567.517172,2612.13732 Z M567.517172,2625.19703 L576.502948,2625.19703 L576.502948,2613.58907 L567.517172,2613.58907 L567.517172,2625.19703 Z M567.517172,2629.54892 L576.502948,2629.54892 L576.502948,2626.64676 L567.517172,2626.64676 L567.517172,2629.54892 Z M567.517172,2607.78476 L571.043762,2607.78476 L571.043762,2607.01259 L548.193289,2607.01259 L548.193289,2623.11332 L566.019428,2623.11332 L566.019428,2609.23583 C566.019428,2608.43818 566.693171,2607.78476 567.517172,2607.78476 L567.517172,2607.78476 Z M578,2609.23583 L578,2629.54959 C578,2630.34725 577.326257,2631 576.502948,2631 L567.517172,2631 C566.693171,2631 566.019428,2630.34725 566.019428,2629.54959 L566.019428,2628.48694 L545.106398,2628.48694 C544.563526,2628.37692 543.324061,2627.8087 543.324061,2627.8087 C543.132256,2627.67319 543,2627.46455 543,2627.217 C543,2626.80576 543.344834,2626.47234 543.769992,2626.47234 L566.019428,2626.47234 L566.019428,2625.12592 L548.193289,2625.12592 C547.050766,2625.12592 546.115974,2624.22025 546.115974,2623.11332 L546.115974,2607.01259 C546.115974,2605.90567 547.050766,2605 548.193289,2605 L571.043762,2605 C572.186286,2605 573.121078,2605.90567 573.121078,2607.01259 L573.121078,2607.78476 L576.502948,2607.78476 C577.326257,2607.78476 578,2608.43818 578,2609.23583 L578,2609.23583 Z M570.511969,2611.41212 L573.507459,2611.41212 C573.920844,2611.41212 574.256677,2611.08742 574.256677,2610.68691 C574.256677,2610.28641 573.920844,2609.96104 573.507459,2609.96104 L570.511969,2609.96104 C570.099276,2609.96104 569.763443,2610.28641 569.763443,2610.68691 C569.763443,2611.08742 570.099276,2611.41212 570.511969,2611.41212 L570.511969,2611.41212 Z M571.261188,2628.09784 C571.261188,2627.69734 571.596328,2627.37264 572.009714,2627.37264 C572.423792,2627.37264 572.75824,2627.69734 572.75824,2628.09784 C572.75824,2628.49902 572.423792,2628.82305 572.009714,2628.82305 C571.596328,2628.82305 571.261188,2628.49902 571.261188,2628.09784 L571.261188,2628.09784 Z" id="Fill-1"></path>
        </g>
    </g>
</svg>