<?xml version="1.0" encoding="UTF-8"?>
<svg width="24px" height="27px" viewBox="0 0 24 27" version="1.1" xmlns="http://www.w3.org/2000/svg" xmlns:xlink="http://www.w3.org/1999/xlink">
    <!-- Generator: Sketch 63.1 (92452) - https://sketch.com -->
    <title>Fill 1</title>
    <desc>Created with Sketch.</desc>
    <g id="Page-1" stroke="none" stroke-width="1" fill="none" fill-rule="evenodd">
        <g id="design_ResyGlobalAccess_LP" transform="translate(-951.000000, -2606.000000)" fill="#00175A">
            <g id="Group-3" transform="translate(951.000000, 2606.000000)">
                <path d="M21.7031333,14.875 C21.7031333,15.427 21.2551333,15.875 20.7031333,15.875 C20.1511333,15.875 19.7031333,15.427 19.7031333,14.875 L19.7031333,10.8516667 C19.7031333,10.2996667 20.1511333,9.85166667 20.7031333,9.85166667 C21.2551333,9.85166667 21.7031333,10.2996667 21.7031333,10.8516667 L21.7031333,14.875 Z M12.3324667,24.2523333 L11.3704667,24.2523333 C10.8184667,24.2523333 10.3704667,23.805 10.3704667,23.2523333 C10.3704667,22.7003333 10.8184667,22.2523333 11.3704667,22.2523333 L12.3324667,22.2523333 C12.8851333,22.2523333 13.3324667,22.7003333 13.3324667,23.2523333 C13.3324667,23.805 12.8851333,24.2523333 12.3324667,24.2523333 L12.3324667,24.2523333 Z M3.9998,14.875 C3.9998,15.427 3.55246667,15.875 2.9998,15.875 C2.4478,15.875 1.9998,15.427 1.9998,14.875 L1.9998,10.8516667 C1.9998,10.2996667 2.4478,9.85166667 2.9998,9.85166667 C3.55246667,9.85166667 3.9998,10.2996667 3.9998,10.8516667 L3.9998,14.875 Z M21.5091333,7.975 C20.6311333,3.40966667 16.6324667,0.000333333333 11.8518,0.000333333333 C7.0618,0.000333333333 3.0718,3.43966667 2.19313333,7.97566667 C0.932466667,8.331 -0.0002,9.47833333 -0.0002,10.8516667 L-0.0002,14.875 C-0.0002,16.529 1.3458,17.875 2.9998,17.875 C4.65446667,17.875 5.9998,16.529 5.9998,14.875 L5.9998,10.8516667 C5.9998,9.62966667 5.26313333,8.57966667 4.21246667,8.11233333 C5.0058,4.619 8.12113333,2.00033333 11.8518,2.00033333 C15.5758,2.00033333 18.7011333,4.59633333 19.4944667,8.111 C18.4418,8.577 17.7031333,9.62766667 17.7031333,10.8516667 L17.7031333,14.875 C17.7031333,16.1616667 18.5211333,17.251 19.6604667,17.677 C19.5278,18.8816667 18.8031333,21.5603333 15.1111333,22.1343333 C14.6664667,21.033 13.5911333,20.2523333 12.3324667,20.2523333 L11.3704667,20.2523333 C9.71646667,20.2523333 8.37046667,21.5983333 8.37046667,23.2523333 C8.37046667,24.907 9.71646667,26.2523333 11.3704667,26.2523333 L12.3324667,26.2523333 C13.6751333,26.2523333 14.8004667,25.361 15.1824667,24.1423333 C19.9818,23.5103333 21.4884667,19.973 21.6684667,17.7016667 C22.8478,17.297 23.7031333,16.1896667 23.7031333,14.875 L23.7031333,10.8516667 C23.7031333,9.47833333 22.7704667,8.33033333 21.5091333,7.975 L21.5091333,7.975 Z" id="Fill-1"></path>
            </g>
        </g>
    </g>
</svg>