<?xml version="1.0" encoding="UTF-8"?>
<svg width="27px" height="28px" viewBox="0 0 27 28" version="1.1" xmlns="http://www.w3.org/2000/svg" xmlns:xlink="http://www.w3.org/1999/xlink">
    <!-- Generator: Sketch 63.1 (92452) - https://sketch.com -->
    <title>Mask</title>
    <desc>Created with Sketch.</desc>
    <g id="Page-1" stroke="none" stroke-width="1" fill="none" fill-rule="evenodd">
        <g id="design_ResyGlobalAccess_LP" transform="translate(-151.000000, -2306.000000)" fill="#00175A">
            <path d="M163.19852,2306.3158 C163.988286,2305.89473 165.010481,2305.89473 165.802095,2306.3158 L165.802095,2306.3158 L176.696671,2312.11531 C177.500616,2312.5435 178,2313.34148 178,2314.19757 L178,2314.19757 L178,2325.79687 C178,2326.65325 177.500616,2327.45094 176.696054,2327.87885 L176.696054,2327.87885 L165.802095,2333.67864 C165.406289,2333.88889 164.956227,2334 164.5,2334 C164.043773,2334 163.593711,2333.88889 163.19852,2333.67864 L163.19852,2333.67864 L152.303329,2327.87885 C151.499384,2327.45095 151,2326.65325 151,2325.79687 L151,2325.79687 L151,2314.19757 C151,2313.34148 151.499384,2312.5435 152.303021,2312.11531 L152.303021,2312.11531 Z M164.5,2307.74452 C164.375154,2307.74452 164.252158,2307.77501 164.143958,2307.83256 L164.143958,2307.83256 L153.248458,2313.63206 C153.029901,2313.74858 152.893958,2313.96539 152.893958,2314.19757 L152.893958,2314.19757 L152.893958,2325.79687 C152.893958,2326.02934 153.029901,2326.24586 153.248458,2326.36209 L153.248458,2326.36209 L164.14365,2332.16189 C164.36005,2332.27699 164.639951,2332.27699 164.856967,2332.16189 L164.856967,2332.16189 L175.750925,2326.36209 C175.970407,2326.24586 176.106042,2326.02877 176.106042,2325.79687 L176.106042,2325.79687 L176.106042,2314.19757 C176.106042,2313.96539 175.969791,2313.74858 175.750925,2313.63206 L175.750925,2313.63206 L164.856658,2307.83256 C164.74815,2307.77501 164.625154,2307.74452 164.5,2307.74452 Z M164.585079,2311.82871 C166.336004,2311.82871 168.431565,2312.80275 168.575831,2315.54795 C168.585696,2315.61034 168.874845,2318.11025 167.45191,2319.67373 C167.489519,2319.82102 167.522811,2319.91731 167.546855,2319.976 C167.980271,2320.20021 169.117139,2320.79306 170.28545,2321.44888 C171.731196,2322.24942 171.996301,2323.24996 172.064117,2324.12286 L172.064117,2324.12286 L172.069666,2324.19693 L172.062267,2324.27043 C171.967939,2325.16043 171.178173,2325.83163 170.224413,2325.83163 L170.224413,2325.83163 L158.766028,2325.83163 C157.817816,2325.83163 157.02805,2325.16499 156.929098,2324.28069 L156.929098,2324.28069 L156.920467,2324.20377 L156.926632,2324.12628 C156.995991,2323.25679 157.261404,2322.25911 158.705609,2321.44888 C159.878851,2320.78964 161.02096,2320.19422 161.439271,2319.97828 C161.461774,2319.91845 161.492908,2319.82045 161.530208,2319.66461 C160.11683,2318.1 160.405362,2315.6055 160.419542,2315.49097 C160.558568,2312.80275 162.655671,2311.82871 164.407829,2311.82871 C164.475954,2311.82928 164.517262,2311.82899 164.585079,2311.82871 Z M164.440198,2313.57964 C163.805179,2313.57964 162.403515,2313.78135 162.306104,2315.63285 C162.230888,2316.28439 162.252158,2317.99402 163.184032,2318.73046 L163.184032,2318.73046 L163.607275,2319.0652 L163.496609,2319.56974 C163.472257,2319.68028 163.458385,2319.72586 163.439889,2319.78683 L163.439889,2319.78683 L163.419852,2319.85549 C163.269729,2320.59193 163.048706,2321.17254 162.5,2321.43521 C162.500617,2321.43521 161.118064,2322.1423 159.688656,2322.94512 C159.062269,2323.29668 158.892109,2323.60151 158.830765,2324.10064 L158.830765,2324.10064 L170.158447,2324.08126 C170.097411,2323.58271 169.93095,2323.29326 169.307029,2322.94797 C167.868681,2322.14002 166.482738,2321.43179 166.468558,2321.42495 C166.017263,2321.20843 165.733662,2320.71557 165.542541,2319.78769 C165.520962,2319.71646 165.50185,2319.64496 165.482738,2319.50821 L165.482738,2319.50821 L165.41677,2319.03842 L165.806413,2318.73046 C166.742294,2317.9906 166.757707,2316.24337 166.689273,2315.68983 C166.59063,2313.84602 165.328606,2313.57907 164.585081,2313.57907 L164.585081,2313.57907 L164.531752,2313.58192 L164.440198,2313.57964 Z" id="Mask"></path>
        </g>
    </g>
</svg>