<?xml version="1.0" encoding="UTF-8"?>
<svg width="304px" height="19px" viewBox="0 0 304 19" version="1.1" xmlns="http://www.w3.org/2000/svg" xmlns:xlink="http://www.w3.org/1999/xlink">
    <!-- Generator: Sketch 63.1 (92452) - https://sketch.com -->
    <title>Group 3</title>
    <desc>Created with Sketch.</desc>
    <defs>
        <polygon id="path-1" points="7.45098039e-05 0 304.000745 0 304.000745 18.7675584 7.45098039e-05 18.7675584"></polygon>
    </defs>
    <g id="Page-1" stroke="none" stroke-width="1" fill="none" fill-rule="evenodd">
        <g id="design_ResyGlobalAccess_LP" transform="translate(-151.000000, -20.000000)">
            <g id="Group-3" transform="translate(151.000000, 20.000000)">
                <mask id="mask-2" fill="white">
                    <use xlink:href="#path-1"></use>
                </mask>
                <g id="Clip-2"></g>
                <path d="M208.655094,0 L202.232349,0 L197.320663,5.65706494 L192.409225,0 L185.824793,0 L194.136362,9.27644156 L185.662859,18.7675584 L192.085604,18.7675584 L197.239944,12.8158701 L202.394284,18.7675584 L208.978963,18.7675584 L200.451316,9.16935065 L208.655094,0 Z M168.958258,18.7675584 L184.933905,18.7675584 L184.933905,14.5046494 L174.004558,14.5046494 L174.004558,11.5019091 L184.663931,11.5019091 L184.663931,7.239 L174.004558,7.239 L174.004558,4.26290909 L184.933905,4.26290909 L184.933905,0 L168.958258,0 L168.958258,18.7675584 Z M297.928022,7.239 L293.28631,7.239 C292.28763,7.239 291.560166,6.64901299 291.560166,5.73750649 C291.560166,4.85264935 292.28763,4.26290909 293.28631,4.26290909 L301.678597,4.26290909 L303.64814,0 L293.25899,0 C288.969708,0 286.51312,2.52009091 286.51312,5.89838961 C286.51312,9.43732468 288.887748,11.5019091 292.585918,11.5019091 L297.225146,11.5019091 C298.251146,11.5019091 298.953774,12.0916494 298.953774,13.0034026 C298.953774,13.9149091 298.251146,14.5046494 297.225146,14.5046494 L287.106963,14.5046494 L287.106963,18.7675584 L297.252715,18.7675584 C301.489591,18.7675584 304.00082,16.3012597 304.00082,12.6818831 C304.00082,9.24979221 301.78763,7.239 297.928022,7.239 L297.928022,7.239 Z M220.043421,8.39183117 C221.55448,8.39183117 222.310009,7.48032468 222.310009,6.35414286 C222.310009,5.20131169 221.55448,4.26290909 220.043421,4.26290909 L214.619107,4.26290909 L214.619107,8.39183117 L220.043421,8.39183117 Z M220.636767,0 C224.791931,0 227.38214,2.57363636 227.38214,6.32724675 C227.38214,9.97351948 224.739774,12.6547403 220.475081,12.6547403 L214.619107,12.6547403 L214.619107,18.7675584 L209.57231,18.7675584 L209.57231,0 L220.636767,0 Z M249.861748,18.7675584 L265.839133,18.7675584 L265.839133,14.5046494 L254.908545,14.5046494 L254.908545,11.5019091 L265.568414,11.5019091 L265.568414,7.239 L254.908545,7.239 L254.908545,4.26290909 L265.839133,4.26290909 L265.839133,0 L249.861748,0 L249.861748,18.7675584 Z M239.877682,8.04316883 C241.390231,8.04316883 242.145264,7.2121039 242.145264,6.16636364 C242.145264,5.14776623 241.390231,4.26290909 239.877682,4.26290909 L234.58997,4.26290909 L234.58997,8.04316883 L239.877682,8.04316883 Z M247.219133,6.05927273 C247.219133,9.00846753 245.329316,11.3141299 242.172584,11.9845584 L248.433892,18.7675584 L242.172584,18.7675584 L236.422911,12.198987 L234.58997,12.198987 L234.58997,18.7675584 L229.543173,18.7675584 L229.543173,0 L240.471277,0 C244.628924,0 247.219133,2.46654545 247.219133,6.05927273 L247.219133,6.05927273 Z M279.372597,7.239 L274.730885,7.239 C273.732205,7.239 273.004741,6.64901299 273.004741,5.73750649 C273.004741,4.85264935 273.732205,4.26290909 274.730885,4.26290909 L283.123173,4.26290909 L285.09495,0 L274.703565,0 C270.414284,0 267.957695,2.52009091 267.957695,5.89838961 C267.957695,9.43732468 270.332323,11.5019091 274.030493,11.5019091 L278.672454,11.5019091 C279.695473,11.5019091 280.398349,12.0916494 280.398349,13.0034026 C280.398349,13.9149091 279.695473,14.5046494 278.672454,14.5046494 L268.551539,14.5046494 L268.551539,18.7675584 L278.69729,18.7675584 C282.934166,18.7675584 285.445395,16.3012597 285.445395,12.6818831 C285.445395,9.24979221 283.232205,7.239 279.372597,7.239 L279.372597,7.239 Z M151.180715,11.4483636 L143.489565,0 L137.120715,0 L137.120715,18.7675584 L142.140192,18.7675584 L142.140192,6.89033766 L150.074244,18.7675584 L156.172872,18.7675584 L156.172872,0 L151.180715,0 L151.180715,11.4483636 Z M121.846454,10.8317273 L127.135905,10.8317273 L124.491303,4.55777922 L121.846454,10.8317273 Z M121.307003,0 L127.837539,0 L136.176427,18.7675584 L130.482388,18.7675584 L128.862793,14.9604026 L120.119565,14.9604026 L118.52729,18.7675584 L112.967865,18.7675584 L121.307003,0 Z M52.4062967,18.7675584 L68.3821922,18.7675584 L68.3821922,14.5046494 L57.452349,14.5046494 L57.452349,11.5019091 L68.1122183,11.5019091 L68.1122183,7.239 L57.452349,7.239 L57.452349,4.26290909 L68.3821922,4.26290909 L68.3821922,0 L52.4062967,0 L52.4062967,18.7675584 Z M36.4045712,11.8236753 L32.0867281,0 L24.1526758,0 L24.1526758,18.7675584 L29.1182575,18.7675584 L29.1182575,5.25485714 L34.1106627,18.7675584 L38.5904405,18.7675584 L43.5828458,5.25485714 L43.5828458,18.7675584 L48.5484275,18.7675584 L48.5484275,0 L40.6953425,0 L36.4045712,11.8236753 Z M8.87866275,10.8317273 L14.1678654,10.8317273 L11.5232641,4.55777922 L8.87866275,10.8317273 Z M8.3389634,0 L14.8694993,0 L23.2083882,18.7675584 L17.514349,18.7675584 L15.8950026,14.9604026 L7.15152549,14.9604026 L5.55900261,18.7675584 L7.45098039e-05,18.7675584 L8.3389634,0 Z M104.764336,9.54466234 L104.764336,9.196 C104.764336,6.40768831 106.329539,4.3968961 109.567983,4.3968961 L115.181055,4.3968961 L115.181055,0 L109.136075,0 C102.902336,0 99.7180353,3.96803896 99.7180353,9.196 L99.7180353,9.57155844 C99.7180353,15.3895065 103.334244,18.7675584 108.893173,18.7675584 L110.62031,18.7675584 L112.644244,14.5046494 L109.675774,14.5046494 C106.653408,14.5046494 104.764336,12.8158701 104.764336,9.54466234 L104.764336,9.54466234 Z M82.0147542,8.04316883 C83.5263098,8.04316883 84.2818392,7.2121039 84.2818392,6.16636364 C84.2818392,5.14776623 83.5263098,4.26290909 82.0147542,4.26290909 L76.7255516,4.26290909 L76.7255516,8.04316883 L82.0147542,8.04316883 Z M89.3552118,6.05927273 C89.3552118,9.00846753 87.4661399,11.3141299 84.3086627,11.9845584 L90.5694732,18.7675584 L84.3086627,18.7675584 L78.5607281,12.198987 L76.7255516,12.198987 L76.7255516,18.7675584 L71.679251,18.7675584 L71.679251,0 L82.6085974,0 C86.7642575,0 89.3552118,2.46654545 89.3552118,6.05927273 L89.3552118,6.05927273 Z M91.9998131,18.7675584 L91.9998131,9.38353247 L91.9998131,0 L94.5232118,0 L97.0463621,0 L97.0463621,9.38550649 L97.0463621,18.7675584 L94.502349,18.7675584 L91.9998131,18.7675584 Z" id="Fill-1" fill="#00175A" mask="url(#mask-2)"></path>
            </g>
        </g>
    </g>
</svg>