<?xml version="1.0" encoding="utf-8"?>
<!-- Generator: Adobe Illustrator 24.3.0, SVG Export Plug-In . SVG Version: 6.00 Build 0)  -->
<svg version="1.1" id="Layer_1" xmlns="http://www.w3.org/2000/svg" xmlns:xlink="http://www.w3.org/1999/xlink" x="0px" y="0px"
	 viewBox="0 0 304 19" style="enable-background:new 0 0 304 19;" xml:space="preserve">
<style type="text/css">
	.st0{filter:url(#Adobe_OpacityMaskFilter);}
	.st1{fill-rule:evenodd;clip-rule:evenodd;fill:#FFFFFF;}
	.st2{mask:url(#mask-2_1_);fill-rule:evenodd;clip-rule:evenodd;fill:#FFFFFF;}
</style>
<desc>Created with Sketch.</desc>
<g id="Page-1">
	<g id="design_ResyGlobalAccess_LP" transform="translate(-151.000000, -20.000000)">
		<g id="Group-3" transform="translate(151.000000, 20.000000)">
			<g id="Clip-2">
			</g>
			<defs>
				<filter id="Adobe_OpacityMaskFilter" filterUnits="userSpaceOnUse" x="0" y="0" width="304" height="18.8">
					<feColorMatrix  type="matrix" values="1 0 0 0 0  0 1 0 0 0  0 0 1 0 0  0 0 0 1 0"/>
				</filter>
			</defs>
			<mask maskUnits="userSpaceOnUse" x="0" y="0" width="304" height="18.8" id="mask-2_1_">
				<g class="st0">
					<polygon id="path-1_1_" class="st1" points="0,0 304,0 304,18.8 0,18.8 					"/>
				</g>
			</mask>
			<path id="Fill-1" class="st2" d="M208.7,0h-6.4l-4.9,5.7L192.4,0h-6.6l8.3,9.3l-8.5,9.5h6.4l5.2-6l5.2,6h6.6l-8.5-9.6L208.7,0z
				 M169,18.8h16v-4.3H174v-3h10.7V7.2H174v-3h10.9V0h-16V18.8z M297.9,7.2h-4.6c-1,0-1.7-0.6-1.7-1.5c0-0.9,0.7-1.5,1.7-1.5h8.4
				l2-4.3h-10.4c-4.3,0-6.7,2.5-6.7,5.9c0,3.5,2.4,5.6,6.1,5.6h4.6c1,0,1.7,0.6,1.7,1.5c0,0.9-0.7,1.5-1.7,1.5h-10.1v4.3h10.1
				c4.2,0,6.7-2.5,6.7-6.1C304,9.2,301.8,7.2,297.9,7.2L297.9,7.2z M220,8.4c1.5,0,2.3-0.9,2.3-2c0-1.2-0.8-2.1-2.3-2.1h-5.4v4.1
				H220z M220.6,0c4.2,0,6.7,2.6,6.7,6.3c0,3.6-2.6,6.3-6.9,6.3h-5.9v6.1h-5V0H220.6z M249.9,18.8h16v-4.3h-10.9v-3h10.7V7.2h-10.7
				v-3h10.9V0h-16V18.8z M239.9,8c1.5,0,2.3-0.8,2.3-1.9c0-1-0.8-1.9-2.3-1.9h-5.3V8H239.9z M247.2,6.1c0,2.9-1.9,5.3-5,5.9l6.3,6.8
				h-6.3l-5.7-6.6h-1.8v6.6h-5V0h10.9C244.6,0,247.2,2.5,247.2,6.1L247.2,6.1z M279.4,7.2h-4.6c-1,0-1.7-0.6-1.7-1.5
				c0-0.9,0.7-1.5,1.7-1.5h8.4l2-4.3h-10.4c-4.3,0-6.7,2.5-6.7,5.9c0,3.5,2.4,5.6,6.1,5.6h4.6c1,0,1.7,0.6,1.7,1.5
				c0,0.9-0.7,1.5-1.7,1.5h-10.1v4.3h10.1c4.2,0,6.7-2.5,6.7-6.1C285.4,9.2,283.2,7.2,279.4,7.2L279.4,7.2z M151.2,11.4L143.5,0
				h-6.4v18.8h5V6.9l7.9,11.9h6.1V0h-5V11.4z M121.8,10.8h5.3l-2.6-6.3L121.8,10.8z M121.3,0h6.5l8.3,18.8h-5.7l-1.6-3.8h-8.7
				l-1.6,3.8H113L121.3,0z M52.4,18.8h16v-4.3H57.5v-3h10.7V7.2H57.5v-3h10.9V0h-16V18.8z M36.4,11.8L32.1,0h-7.9v18.8h5V5.3l5,13.5
				h4.5l5-13.5v13.5h5V0h-7.9L36.4,11.8z M8.9,10.8h5.3l-2.6-6.3L8.9,10.8z M8.3,0h6.5l8.3,18.8h-5.7L15.9,15H7.2l-1.6,3.8H0L8.3,0z
				 M104.8,9.5V9.2c0-2.8,1.6-4.8,4.8-4.8h5.6V0h-6c-6.2,0-9.4,4-9.4,9.2v0.4c0,5.8,3.6,9.2,9.2,9.2h1.7l2-4.3h-3
				C106.7,14.5,104.8,12.8,104.8,9.5L104.8,9.5z M82,8c1.5,0,2.3-0.8,2.3-1.9c0-1-0.8-1.9-2.3-1.9h-5.3V8H82z M89.4,6.1
				c0,2.9-1.9,5.3-5,5.9l6.3,6.8h-6.3l-5.7-6.6h-1.8v6.6h-5V0h10.9C86.8,0,89.4,2.5,89.4,6.1L89.4,6.1z M92,18.8V9.4V0h2.5H97v9.4
				v9.4h-2.5H92z"/>
		</g>
	</g>
</g>
</svg>
