<?xml version="1.0" encoding="UTF-8"?>
<svg width="217px" height="38px" viewBox="0 0 217 38" version="1.1" xmlns="http://www.w3.org/2000/svg" xmlns:xlink="http://www.w3.org/1999/xlink">
    <!-- Generator: Sketch 63.1 (92452) - https://sketch.com -->
    <title>Group 6 Copy 5</title>
    <desc>Created with Sketch.</desc>
    <g id="Page-1" stroke="none" stroke-width="1" fill="none" fill-rule="evenodd">
        <g id="design_ResyGlobalAccess_LP" transform="translate(-152.000000, -926.000000)" fill="#333333" fill-rule="nonzero">
            <g id="Group-6-Copy-5" transform="translate(152.000000, 926.000000)">
                <g id="Logo-Lockup-Copy-2">
                    <path d="M216.057143,0.388297872 L129.481054,0.388297872 L129.481054,37.6648936 L216.057143,37.6648936 L216.057143,0.388297872 Z M153.391596,25.9038286 C149.705388,25.9038286 146.71657,23.6114177 145.819924,20.4219763 L145.022906,20.4219763 L145.022906,25.7044886 L141.735207,25.7044886 L141.735207,11.3520025 L147.314333,11.3520025 C148.210979,11.3520025 148.908369,11.4516725 149.60576,11.7506827 C150.303151,11.9500228 150.801287,12.3487029 151.299424,12.7473831 C151.697933,13.1460633 152.096442,13.6444135 152.295696,14.1427637 C152.494951,14.6411139 152.594578,15.2391341 152.594578,15.9368244 C152.594578,16.8338548 152.395324,17.7308852 151.996815,18.4285755 C151.598305,19.1262658 151.000542,19.624616 150.203524,20.0232962 C149.904642,20.1229662 149.705388,20.3223063 149.306878,20.4219763 C150.103897,22.016697 151.598305,23.0133974 153.590851,23.0133974 L153.590851,25.9038286 L153.391596,25.9038286 Z M170.128976,25.7044886 L159.668114,25.7044886 L159.668114,11.3520025 L169.63084,11.3520025 L169.63084,14.2424337 L162.955813,14.2424337 L162.955813,17.0331949 L167.937176,17.0331949 L167.937176,19.8239561 L162.955813,19.8239561 L162.955813,22.9137274 L170.128976,22.9137274 L170.128976,25.7044886 Z M179.992075,14.940124 C179.992075,15.4384742 180.290956,15.8371544 180.789093,16.1361645 C181.287229,16.4351747 182.084247,16.7341848 182.980892,16.9335249 C183.578656,17.0331949 184.076792,17.232535 184.574929,17.4318751 C185.073065,17.6312152 185.571201,17.9302253 185.96971,18.3289054 C186.368219,18.7275856 186.766728,19.1262658 186.965983,19.624616 C187.264865,20.1229662 187.364492,20.8206565 187.364492,21.5183468 C187.364492,22.2160371 187.264865,22.8140573 186.965983,23.3124076 C186.667101,23.9104278 186.268592,24.309108 185.770456,24.7077881 C185.272319,25.1064683 184.674556,25.4054784 183.977165,25.6048185 C183.279774,25.8041586 182.582383,25.9038286 181.785365,25.9038286 C181.087975,25.9038286 180.390584,25.8041586 179.79282,25.7044886 C179.195057,25.6048185 178.597293,25.4054784 178.099157,25.2061384 C177.60102,25.0067983 177.202511,24.7077881 176.804002,24.408778 C176.405493,24.1097679 176.106611,23.8107578 175.80773,23.5117476 L177.999529,21.2193367 C178.198784,21.4186768 178.398038,21.6180168 178.69692,21.8173569 C178.995802,22.016697 179.294684,22.2160371 179.593566,22.4153772 C179.892447,22.6147173 180.290956,22.7143873 180.689465,22.8140573 C181.087975,22.9137274 181.486484,23.0133974 181.884993,23.0133974 C182.183874,23.0133974 182.383129,23.0133974 182.682011,22.9137274 C182.980892,22.8140573 183.180147,22.7143873 183.379401,22.6147173 C183.578656,22.5150472 183.777911,22.3157071 183.877538,22.116367 C183.977165,21.917027 184.076792,21.7176869 184.076792,21.4186768 C184.076792,20.9203265 183.777911,20.4219763 183.279774,20.2226362 C182.781638,19.9236261 181.884993,19.624616 180.789093,19.3256059 C180.191329,19.2259358 179.693193,19.0265957 179.195057,18.7275856 C178.69692,18.5282455 178.298411,18.2292354 177.899902,17.8305552 C177.501393,17.5315451 177.302139,17.1328649 177.102884,16.6345147 C176.90363,16.2358346 176.804002,15.7374844 176.804002,15.1394641 C176.804002,14.5414439 176.90363,13.9434236 177.102884,13.4450734 C177.302139,12.9467232 177.700648,12.448373 178.099157,12.0496928 C178.597293,11.6510126 179.095429,11.3520025 179.79282,11.0529924 C180.490211,10.8536523 181.287229,10.6543122 182.183874,10.6543122 C182.980892,10.6543122 183.578656,10.7539823 184.17642,10.8536523 C184.774183,11.0529924 185.272319,11.1526624 185.670828,11.3520025 C186.069338,11.5513426 186.368219,11.7506827 186.667101,12.0496928 C186.965983,12.2490329 187.165237,12.448373 187.264865,12.548043 L185.371947,14.6411139 C185.172692,14.5414439 184.973438,14.3421038 184.774183,14.2424337 C184.574929,14.0430936 184.276047,13.9434236 184.076792,13.8437536 C183.777911,13.7440835 183.479029,13.6444135 183.180147,13.5447434 C182.881265,13.4450734 182.482756,13.4450734 182.183874,13.4450734 C181.98462,13.4450734 181.685738,13.4450734 181.486484,13.5447434 C181.287229,13.6444135 181.087975,13.7440835 180.88872,13.8437536 C180.689465,13.9434236 180.589838,14.1427637 180.490211,14.2424337 C179.992075,14.5414439 179.992075,14.7407839 179.992075,14.940124 M205.795535,11.2523325 L200.614918,19.624616 L200.614918,25.7044886 L197.227591,25.7044886 L197.227591,19.724286 L192.046973,11.3520025 L195.832809,11.3520025 L199.020881,16.7341848 L202.109326,11.3520025 L205.795535,11.3520025 L205.795535,11.2523325 Z M147.115079,17.9302253 C147.712842,17.9302253 148.210979,17.7308852 148.609488,17.4318751 C149.007997,17.0331949 149.107624,16.6345147 149.107624,16.0364945 C149.107624,15.4384742 148.908369,14.940124 148.609488,14.6411139 C148.210979,14.3421038 147.712842,14.1427637 147.115079,14.1427637 L145.122534,14.1427637 L145.122534,17.9302253 L147.115079,17.9302253 Z" id="Shape"></path>
                    <polygon id="Path" points="59.7604863 16.6968085 61.2463725 16.6968085 62.8251266 16.6968085 62.8251266 10.5337447 62.8251266 4.2712766 61.2463725 4.2712766 59.7604863 4.2712766 59.7604863 10.5337447"></polygon>
                    <path d="M54.3232212,9.53970213 L50.8631434,9.53970213 L50.8631434,7.05459574 L54.3232212,7.05459574 C55.3118149,7.05459574 55.8061117,7.65102128 55.8061117,8.34685106 C55.8061117,8.9432766 55.3118149,9.53970213 54.3232212,9.53970213 M59.0684708,8.24744681 C59.0684708,5.86174468 57.3878616,4.2712766 54.6197993,4.2712766 L47.501925,4.2712766 L47.501925,16.6968085 L50.7642841,16.6968085 L50.7642841,12.3230213 L51.9505965,12.3230213 L55.7072523,16.6968085 L59.7604863,16.6968085 L55.7072523,12.223617 C57.8821584,11.7265957 59.0684708,10.1361277 59.0684708,8.24744681" id="Shape"></path>
                    <path d="M68.5938614,10.5842485 L68.5938614,10.3838367 C68.5938614,8.4799245 69.6454536,7.17724777 71.9589566,7.17724777 L75.849848,7.17724777 L75.849848,4.2712766 L71.643479,4.2712766 C67.3319507,4.2712766 65.1236069,6.87663006 65.1236069,10.3838367 L65.1236069,10.5842485 C65.1236069,14.4922787 67.6474283,16.6968085 71.5383197,16.6968085 L72.6950712,16.6968085 L74.0621412,13.8910432 L71.9589566,13.8910432 C69.8557721,13.8910432 68.5938614,12.7887783 68.5938614,10.5842485" id="Path"></path>
                    <path d="M5.83270255,11.428383 L7.51331176,7.25340426 L9.19392097,11.428383 L5.83270255,11.428383 Z M5.43726509,4.2712766 L0,16.6968085 L3.65779652,16.6968085 L4.74524953,14.2117021 L10.4790927,14.2117021 L11.5665457,16.6968085 L15.3232016,16.6968085 L9.88593653,4.2712766 L5.43726509,4.2712766 Z" id="Shape"></path>
                    <polygon id="Path" points="24.1840095 12.1242128 21.2859257 4.2712766 16.0893617 4.2712766 16.0893617 16.6968085 19.2872473 16.6968085 19.2872473 7.75042553 22.5850667 16.6968085 25.5830844 16.6968085 28.8809039 7.75042553 28.8809039 16.6968085 32.1787234 16.6968085 32.1787234 4.2712766 26.9821594 4.2712766"></polygon>
                    <polygon id="Path" points="34.4772036 16.6968085 45.2034448 16.6968085 45.2034448 13.9134894 37.9176961 13.9134894 37.9176961 11.9254043 45.0010629 11.9254043 45.0010629 9.14208511 37.9176961 9.14208511 37.9176961 7.154 45.2034448 7.154 45.2034448 4.2712766 34.4772036 4.2712766"></polygon>
                    <path d="M80.1502304,11.428383 L81.8308396,7.25340426 L83.5114488,11.428383 L80.1502304,11.428383 Z M79.754793,4.2712766 L74.3175279,16.6968085 L77.9753244,16.6968085 L79.0627774,14.2117021 L84.7966206,14.2117021 L85.8840736,16.6968085 L89.6407295,16.6968085 L84.2034644,4.2712766 L79.754793,4.2712766 Z" id="Shape"></path>
                    <polygon id="Path" points="99.4291907 11.826 94.5257662 4.2712766 90.4068896 4.2712766 90.4068896 16.6968085 93.6431497 16.6968085 93.6431497 8.84387234 98.7427112 16.6968085 102.665451 16.6968085 102.665451 4.2712766 99.4291907 4.2712766"></polygon>
                    <path d="M87.5639261,24.6130748 L84.698593,24.6130748 C84.0515823,24.6130748 83.6818619,24.2122512 83.6818619,23.6110158 C83.6818619,23.0097804 84.1440124,22.6089568 84.698593,22.6089568 L89.7822484,22.6089568 L90.9838397,19.8031915 L84.6061629,19.8031915 C82.0181202,19.8031915 80.4468085,21.5066918 80.4468085,23.7112217 C80.4468085,26.1161633 81.9256901,27.4188401 84.1440124,27.4188401 L87.0093455,27.4188401 C87.6563562,27.4188401 88.0260766,27.8196637 88.0260766,28.4208991 C88.0260766,29.0221345 87.5639261,29.4229581 87.0093455,29.4229581 L80.8165289,29.4229581 L80.8165289,32.2287234 L87.0093455,32.2287234 C89.5973882,32.2287234 91.1686999,30.625429 91.1686999,28.2204873 C91.26113,25.9157515 89.8746785,24.6130748 87.5639261,24.6130748" id="Path"></path>
                    <path d="M62.7509821,25.071617 L59.2909043,25.071617 L59.2909043,22.5865106 L62.7509821,22.5865106 C63.7395758,22.5865106 64.2338726,23.1829362 64.2338726,23.878766 C64.2338726,24.5745957 63.7395758,25.071617 62.7509821,25.071617 M67.4962317,23.7793617 C67.4962317,21.3936596 65.8156224,19.8031915 63.0475602,19.8031915 L55.9296859,19.8031915 L55.9296859,32.2287234 L59.192045,32.2287234 L59.192045,27.8549362 L60.3783574,27.8549362 L64.1350132,32.2287234 L68.1882472,32.2287234 L64.1350132,27.7555319 C66.3099193,27.2585106 67.4962317,25.7674468 67.4962317,23.7793617" id="Shape"></path>
                    <polygon id="Path" points="68.9544073 32.2287234 79.6806484 32.2287234 79.6806484 29.346 72.3255117 29.346 72.3255117 27.3579149 79.5784938 27.3579149 79.5784938 24.5745957 72.3255117 24.5745957 72.3255117 22.5865106 79.6806484 22.5865106 79.6806484 19.8031915 68.9544073 19.8031915"></polygon>
                    <path d="M49.3069462,25.3698298 L45.5670462,25.3698298 L45.5670462,22.6859149 L49.3069462,22.6859149 C50.3458074,22.6859149 50.8652379,23.2823404 50.8652379,24.0775745 C50.8652379,24.7734043 50.3458074,25.3698298 49.3069462,25.3698298 M49.7224907,19.8031915 L42.1388045,19.8031915 L42.1388045,32.2287234 L45.5670462,32.2287234 L45.5670462,28.1531489 L49.6186046,28.1531489 C52.5274157,28.1531489 54.3973658,26.3638723 54.3973658,23.9781702 C54.2934796,21.4930638 52.5274157,19.8031915 49.7224907,19.8031915" id="Shape"></path>
                    <path d="M99.8223002,24.6130748 L96.9570425,24.6130748 C96.3100488,24.6130748 95.9403382,24.2122512 95.9403382,23.6110158 C95.9403382,23.0097804 96.4024765,22.6089568 96.9570425,22.6089568 L102.040564,22.6089568 L103.242124,19.8031915 L96.8646148,19.8031915 C94.2766402,19.8031915 92.7053698,21.5066918 92.7053698,23.7112217 C92.7053698,26.1161633 94.1842125,27.4188401 96.4024765,27.4188401 L99.2677342,27.4188401 C99.9147279,27.4188401 100.284439,27.8196637 100.284439,28.4208991 C100.284439,29.0221345 99.8223002,29.4229581 99.2677342,29.4229581 L93.0750805,29.4229581 L93.0750805,32.2287234 L99.2677342,32.2287234 C101.855709,32.2287234 103.426979,30.625429 103.426979,28.2204873 C103.519407,25.9157515 102.22542,24.6130748 99.8223002,24.6130748" id="Path"></path>
                    <polygon id="Path" points="15.3232016 32.2287234 26.0494428 32.2287234 26.0494428 29.346 18.694306 29.346 18.694306 27.3579149 25.8451334 27.3579149 25.8451334 24.5745957 18.694306 24.5745957 18.694306 22.5865106 26.0494428 22.5865106 26.0494428 19.8031915 15.3232016 19.8031915"></polygon>
                    <polygon id="Path" points="42.7059619 19.8031915 38.4274056 19.8031915 35.2433637 23.4811489 32.0593218 19.8031915 27.6812642 19.8031915 33.1538362 25.9662553 27.5817629 32.2287234 31.7608179 32.2287234 35.1438624 28.2525532 38.5269069 32.2287234 42.9049645 32.2287234 37.3328912 25.8668511"></polygon>
                    <rect id="Rectangle" x="116.456332" y="0.388297872" width="1" height="37.2765957"></rect>
                </g>
            </g>
        </g>
    </g>
</svg>