<?xml version="1.0" encoding="utf-8"?>
<!-- Generator: Adobe Illustrator 24.3.0, SVG Export Plug-In . SVG Version: 6.00 Build 0)  -->
<svg version="1.1" id="Layer_1" xmlns="http://www.w3.org/2000/svg" xmlns:xlink="http://www.w3.org/1999/xlink" x="0px" y="0px"
	 viewBox="0 0 216 38" style="enable-background:new 0 0 216 38;" xml:space="preserve">
<style type="text/css">
	.st0{fill-rule:evenodd;clip-rule:evenodd;fill:#333333;}
</style>
<path id="Fill-1" class="st0" d="M115.4,37.3h0.7V0h-0.7V37.3z M36.7,26.5l5.6,6.4H38L34.6,29l-3.4,3.9h-4.2l5.6-6.3L27,20.5h4.3
	l3.2,3.8l3.2-3.8h4.2L36.7,26.5z M15.9,20.5h10.5v2.8h-7.2v2h7v2.8h-7v2h7.2v2.8H15.9V20.5z M100.9,25.3c2.5,0,4,1.3,4,3.6
	c0,2.4-1.7,4-4.4,4h-6.7v-2.8h6.7c0.7,0,1.1-0.4,1.1-1s-0.5-1-1.1-1h-3.1c-2.4,0-4-1.4-4-3.7c0-2.2,1.6-3.9,4.4-3.9h6.8l-1.3,2.8
	h-5.5c-0.7,0-1.1,0.4-1.1,1c0,0.6,0.5,1,1.1,1H100.9L100.9,25.3z M50,20.5h-7.3v12.4H46v-4.1h3.9c2.8,0,4.6-1.8,4.6-4.2
	C54.4,22.2,52.7,20.5,50,20.5L50,20.5z M49.6,26H46v-2.7h3.6c1,0,1.5,0.6,1.5,1.4C51.1,25.4,50.6,26,49.6,26L49.6,26z M69.2,20.5
	h10.5v2.8h-7.2v2h7v2.8h-7v2h7.2v2.8H69.2V20.5z M67.5,24.5c0-2.4-1.7-4-4.4-4h-7.2v12.4h3.3v-4.4h1.2l3.8,4.4h4.1l-4.1-4.5
	C66.2,28,67.5,26.4,67.5,24.5L67.5,24.5z M62.7,25.8h-3.5v-2.5h3.5c1,0,1.5,0.6,1.5,1.3C64.1,25.2,63.6,25.8,62.7,25.8L62.7,25.8z
	 M88.7,25.3c2.5,0,4,1.3,4,3.6c0,2.4-1.7,4-4.4,4h-6.7v-2.8h6.7c0.7,0,1.1-0.4,1.1-1s-0.5-1-1.1-1h-3.1c-2.4,0-4-1.4-4-3.7
	c0-2.2,1.6-3.9,4.4-3.9h6.8l-1.3,2.8h-5.5c-0.7,0-1.1,0.4-1.1,1c0,0.6,0.5,1,1.1,1H88.7L88.7,25.3z M99.6,4.4h3.3v12.4h-4L93.7,9
	v7.9h-3.3V4.4h4.2l5.1,7.6V4.4z M79.9,4.4l-5.5,12.4h3.7l1-2.5h5.8l1.1,2.5h3.8L84.2,4.4H79.9z M80.3,11.6L82,7.5l1.7,4.2H80.3z
	 M34.5,4.4h10.5v2.8h-7.2v2h7v2.8h-7v2h7.2v2.8H34.5V4.4z M26.8,4.4H32v12.4h-3.3v-9l-3.3,9h-3l-3.3-9v9h-3.3V4.4h5.2l2.8,7.8
	L26.8,4.4z M5.5,4.4L0,16.9h3.7l1-2.5h5.8l1.1,2.5h3.8L9.8,4.4H5.5z M5.9,11.6l1.7-4.2l1.7,4.2H5.9z M69,10.8c0,2.2,1.2,3.3,3.2,3.3
	h2l-1.3,2.8h-1.1c-3.7,0-6-2.2-6-6.1v-0.2c0-3.5,2.1-6.1,6.2-6.1h4v2.9h-3.7c-2.1,0-3.2,1.3-3.2,3.2V10.8L69,10.8z M58.9,8.5
	c0-2.4-1.7-4-4.4-4h-7.2v12.4h3.3v-4.4h1.2l3.8,4.4h4.1l-4.1-4.5C57.6,11.9,58.9,10.4,58.9,8.5L58.9,8.5z M54,9.8h-3.5V7.3H54
	c1,0,1.5,0.6,1.5,1.3C55.5,9.2,55,9.8,54,9.8L54,9.8z M60.6,10.7V4.4h1.7H64v6.2v6.2h-1.7h-1.7V10.7z M146.4,17.5
	c0.6,0,1.1-0.2,1.5-0.5c0.4-0.4,0.5-0.8,0.5-1.4c0-0.6-0.2-1.1-0.5-1.4c-0.4-0.3-0.9-0.5-1.5-0.5h-2v3.8H146.4z M205.1,10.9
	l-5.2,8.4v6h-3.4v-6l-5.2-8.4h3.8l3.2,5.4l3.1-5.4H205.1z M179.3,14.6c0,0.5,0.3,0.9,0.8,1.2c0.5,0.3,1.3,0.6,2.2,0.8
	c0.6,0.1,1.1,0.3,1.6,0.5c0.5,0.2,1,0.5,1.4,0.9c0.4,0.4,0.8,0.8,1,1.3c0.3,0.5,0.4,1.2,0.4,1.9c0,0.7-0.1,1.3-0.4,1.8
	c-0.3,0.5-0.7,1-1.2,1.4c-0.5,0.4-1.1,0.7-1.8,0.9c-0.7,0.2-1.4,0.3-2.2,0.3c-0.7,0-1.4-0.1-2-0.2c-0.6-0.1-1.2-0.3-1.7-0.5
	c-0.5-0.2-0.9-0.5-1.3-0.8c-0.4-0.3-0.7-0.6-1-0.9l2.2-2.3c0.2,0.2,0.4,0.4,0.7,0.6c0.3,0.2,0.5,0.4,0.9,0.6c0.3,0.2,0.7,0.3,1,0.4
	c0.4,0.1,0.8,0.2,1.2,0.2c0.3,0,0.5,0,0.8-0.1c0.3-0.1,0.5-0.2,0.7-0.3c0.2-0.1,0.4-0.3,0.5-0.5c0.1-0.2,0.2-0.4,0.2-0.7
	c0-0.5-0.3-1-0.8-1.2c-0.5-0.3-1.4-0.6-2.5-0.9c-0.6-0.1-1.1-0.3-1.6-0.6c-0.5-0.2-0.9-0.5-1.3-0.9c-0.3-0.3-0.6-0.7-0.8-1.2
	c-0.2-0.4-0.3-0.9-0.3-1.5c0-0.6,0.1-1.2,0.3-1.7c0.2-0.5,0.6-1,1-1.4c0.5-0.4,1-0.7,1.7-1c0.7-0.2,1.5-0.4,2.4-0.4
	c0.8,0,1.4,0.1,2,0.2c0.6,0.2,1.1,0.3,1.5,0.5c0.4,0.2,0.7,0.4,1,0.7c0.3,0.2,0.5,0.4,0.6,0.5l-1.9,2.1c-0.2-0.1-0.4-0.3-0.6-0.4
	c-0.2-0.2-0.5-0.3-0.7-0.4c-0.3-0.1-0.6-0.2-0.9-0.3c-0.3-0.1-0.7-0.1-1-0.1c-0.2,0-0.5,0-0.7,0.1c-0.2,0.1-0.4,0.2-0.6,0.3
	c-0.2,0.1-0.3,0.3-0.4,0.4C179.3,14.2,179.3,14.4,179.3,14.6L179.3,14.6z M169.4,25.3H159V10.9h10v2.8h-6.7v2.8h5v2.8h-5v3.1h7.2
	V25.3z M152.7,25.6c-3.7,0-6.6-2.3-7.6-5.5h-0.8v5.3h-3.3V10.9h5.6c0.9,0,1.6,0.1,2.3,0.4c0.7,0.2,1.2,0.6,1.7,1
	c0.4,0.4,0.8,0.9,1,1.4c0.2,0.5,0.3,1.1,0.3,1.7c0,0.9-0.2,1.8-0.6,2.4c-0.4,0.7-1,1.2-1.8,1.6c-0.3,0.1-0.5,0.3-0.9,0.4
	c0.8,1.6,2.3,2.6,4.3,2.6V25.6z M128.6,37.3h86.8V0h-86.8V37.3z"/>
</svg>
